<svg width="24" height="24" viewBox="0 0 24 24" fill="none" xmlns="http://www.w3.org/2000/svg">
<path d="M2.22001 2.21934C2.09299 2.34633 2.01576 2.51468 2.00236 2.69379C1.98897 2.8729 2.04029 3.05087 2.14701 3.19534L2.22001 3.27934L6.25401 7.31434C4.28794 8.69386 2.88405 10.7349 2.29901 13.0643C2.25399 13.2561 2.28625 13.458 2.38881 13.6262C2.49138 13.7944 2.65602 13.9155 2.84714 13.9633C3.03827 14.0111 3.24054 13.9818 3.41023 13.8817C3.57992 13.7816 3.70341 13.6187 3.75401 13.4283C4.27381 11.3608 5.5516 9.56401 7.33401 8.39434L9.14401 10.2043C8.421 10.9598 8.0226 11.9684 8.03413 13.0141C8.04566 14.0597 8.46622 15.0593 9.20571 15.7986C9.9452 16.538 10.9448 16.9584 11.9905 16.9697C13.0361 16.9811 14.0446 16.5825 14.8 15.8593L20.719 21.7793C20.8528 21.9135 21.0325 21.9921 21.2219 21.9992C21.4113 22.0063 21.5963 21.9415 21.7398 21.8177C21.8834 21.694 21.9747 21.5205 21.9955 21.3321C22.0163 21.1437 21.9651 20.9544 21.852 20.8023L21.779 20.7183L15.666 14.6043L15.667 14.6023L14.467 13.4043L11.597 10.5343H11.599L8.71901 7.65734L8.72001 7.65534L7.58701 6.52534L3.28001 2.21934C3.13938 2.07889 2.94876 2 2.75001 2C2.55126 2 2.36063 2.07889 2.22001 2.21934ZM10.204 11.2643L13.739 14.8003C13.2675 15.2557 12.636 15.5077 11.9805 15.502C11.325 15.4963 10.698 15.2334 10.2345 14.7699C9.77094 14.3064 9.50802 13.6793 9.50232 13.0238C9.49663 12.3684 9.74861 11.7358 10.204 11.2643ZM12 5.49934C11 5.49934 10.03 5.64734 9.11101 5.92434L10.348 7.16034C12.4876 6.7367 14.7081 7.15142 16.5505 8.31877C18.3929 9.48611 19.7163 11.3168 20.247 13.4323C20.2988 13.6213 20.4225 13.7824 20.5916 13.8814C20.7607 13.9803 20.9618 14.0091 21.1519 13.9617C21.3419 13.9143 21.5059 13.7944 21.6087 13.6276C21.7115 13.4608 21.745 13.2605 21.702 13.0693C21.1602 10.9065 19.9111 8.98685 18.1533 7.61528C16.3954 6.24371 14.2296 5.49895 12 5.49934ZM12.195 9.00934L15.996 12.8093C15.9468 11.8172 15.5306 10.8789 14.8281 10.1766C14.1256 9.47427 13.1871 9.05825 12.195 9.00934Z" fill="#121212"/>
</svg>
