<svg width="20" height="20" viewBox="0 0 20 20" fill="none" xmlns="http://www.w3.org/2000/svg">
<rect x="4" y="5" width="12" height="10" fill="white"/>
<path fill-rule="evenodd" clip-rule="evenodd" d="M5.83342 1.66797C4.72835 1.66797 3.66854 2.10696 2.88714 2.88836C2.10573 3.66976 1.66675 4.72957 1.66675 5.83464V14.168C1.66675 15.273 2.10573 16.3328 2.88714 17.1142C3.66854 17.8956 4.72835 18.3346 5.83342 18.3346H14.1667C15.2718 18.3346 16.3316 17.8956 17.113 17.1142C17.8944 16.3328 18.3334 15.273 18.3334 14.168V5.83464C18.3334 4.72957 17.8944 3.66976 17.113 2.88836C16.3316 2.10696 15.2718 1.66797 14.1667 1.66797H5.83342ZM13.1084 8.90464C13.1833 8.82475 13.2417 8.7309 13.2802 8.62845C13.3188 8.526 13.3368 8.41695 13.3333 8.30753C13.3297 8.19811 13.3047 8.09047 13.2595 7.99074C13.2143 7.89101 13.15 7.80116 13.0701 7.7263C12.9902 7.65145 12.8963 7.59306 12.7939 7.55448C12.6914 7.5159 12.5824 7.49787 12.473 7.50143C12.3636 7.50499 12.2559 7.53006 12.1562 7.57523C12.0565 7.62039 11.9666 7.68475 11.8917 7.76464L9.32258 10.5063L8.05341 9.3788C7.88713 9.24057 7.67362 9.17238 7.458 9.18865C7.24237 9.20492 7.04151 9.30437 6.89785 9.46599C6.75419 9.6276 6.67898 9.83874 6.6881 10.0548C6.69723 10.2708 6.78997 10.4749 6.94675 10.6238L8.82175 12.2905C8.98399 12.4346 9.19604 12.5097 9.41283 12.4999C9.62961 12.4901 9.83401 12.3961 9.98258 12.238L13.1084 8.90464Z" fill="#305E82"/>
</svg>
