<svg width="16" height="16" viewBox="0 0 16 16" fill="none" xmlns="http://www.w3.org/2000/svg">
<path d="M12.0467 6.88094C11.9201 6.88094 11.7934 6.83427 11.6934 6.73427L8.00008 3.04094L4.30674 6.73427C4.11341 6.9276 3.79341 6.9276 3.60008 6.73427C3.40674 6.54094 3.40674 6.22094 3.60008 6.0276L7.64675 1.98094C7.84008 1.7876 8.16008 1.7876 8.35341 1.98094L12.4001 6.0276C12.5934 6.22094 12.5934 6.54094 12.4001 6.73427C12.3067 6.83427 12.1734 6.88094 12.0467 6.88094Z" fill="#027B2A"/>
<path d="M8 14.1653C7.72667 14.1653 7.5 13.9386 7.5 13.6653V2.44531C7.5 2.17198 7.72667 1.94531 8 1.94531C8.27333 1.94531 8.5 2.17198 8.5 2.44531V13.6653C8.5 13.9386 8.27333 14.1653 8 14.1653Z" fill="#027B2A"/>
</svg>
