<svg width="20" height="20" viewBox="0 0 20 20" fill="none" xmlns="http://www.w3.org/2000/svg">
<path d="M12.025 15.6849C11.8667 15.6849 11.7083 15.6266 11.5833 15.5016C11.3417 15.2599 11.3417 14.8599 11.5833 14.6182L16.2 10.0016L11.5833 5.3849C11.3417 5.14323 11.3417 4.74323 11.5833 4.50156C11.825 4.2599 12.225 4.2599 12.4667 4.50156L17.525 9.5599C17.7667 9.80156 17.7667 10.2016 17.525 10.4432L12.4667 15.5016C12.3417 15.6266 12.1834 15.6849 12.025 15.6849Z" fill="#305E82"/>
<path d="M16.9416 10.625H2.91663C2.57496 10.625 2.29163 10.3417 2.29163 10C2.29163 9.65833 2.57496 9.375 2.91663 9.375H16.9416C17.2833 9.375 17.5666 9.65833 17.5666 10C17.5666 10.3417 17.2833 10.625 16.9416 10.625Z" fill="#305E82"/>
</svg>
