<svg width="16" height="16" viewBox="0 0 16 16" fill="none" xmlns="http://www.w3.org/2000/svg">
<path d="M3.95325 9.11906C4.07992 9.11906 4.20659 9.16573 4.30659 9.26573L7.99992 12.9591L11.6933 9.26573C11.8866 9.0724 12.2066 9.0724 12.3999 9.26573C12.5933 9.45906 12.5933 9.77906 12.3999 9.9724L8.35325 14.0191C8.15992 14.2124 7.83992 14.2124 7.64659 14.0191L3.59992 9.9724C3.40659 9.77906 3.40659 9.45906 3.59992 9.26573C3.69325 9.16573 3.82659 9.11906 3.95325 9.11906Z" fill="#CF3801"/>
<path d="M8 1.83469C8.27333 1.83469 8.5 2.06135 8.5 2.33469V13.5547C8.5 13.828 8.27333 14.0547 8 14.0547C7.72667 14.0547 7.5 13.828 7.5 13.5547V2.33469C7.5 2.06135 7.72667 1.83469 8 1.83469Z" fill="#CF3801"/>
</svg>
