<svg width="16" height="16" viewBox="0 0 16 16" fill="none" xmlns="http://www.w3.org/2000/svg">
<path d="M11.4933 15.1654H4.50667C2.64 15.1654 1.45333 14.052 1.34667 12.192L0.999999 6.69203C0.946665 5.8587 1.23333 5.0587 1.80667 4.45203C2.37333 3.84536 3.17333 3.4987 4 3.4987C4.21333 3.4987 4.42 3.37203 4.52 3.17203L5 2.2187C5.39333 1.4387 6.38 0.832031 7.24 0.832031H8.76666C9.62666 0.832031 10.6067 1.4387 11 2.21203L11.48 3.18536C11.58 3.37203 11.78 3.4987 12 3.4987C12.8267 3.4987 13.6267 3.84536 14.1933 4.45203C14.7667 5.06536 15.0533 5.8587 15 6.69203L14.6533 12.1987C14.5333 14.0854 13.38 15.1654 11.4933 15.1654ZM7.24 1.83203C6.74667 1.83203 6.12 2.2187 5.89333 2.66536L5.41333 3.62536C5.13333 4.16536 4.59333 4.4987 4 4.4987C3.44 4.4987 2.92 4.72536 2.53333 5.13203C2.15333 5.5387 1.96 6.07203 2 6.62536L2.34667 12.132C2.42667 13.4787 3.15333 14.1654 4.50667 14.1654H11.4933C12.84 14.1654 13.5667 13.4787 13.6533 12.132L14 6.62536C14.0333 6.07203 13.8467 5.5387 13.4667 5.13203C13.08 4.72536 12.56 4.4987 12 4.4987C11.4067 4.4987 10.8667 4.16536 10.5867 3.6387L10.1 2.66536C9.88 2.22536 9.25333 1.8387 8.76 1.8387H7.24V1.83203Z" fill="white"/>
<path d="M9 5.83203H7C6.72667 5.83203 6.5 5.60536 6.5 5.33203C6.5 5.0587 6.72667 4.83203 7 4.83203H9C9.27333 4.83203 9.5 5.0587 9.5 5.33203C9.5 5.60536 9.27333 5.83203 9 5.83203Z" fill="white"/>
<path d="M7.99999 12.5013C6.52666 12.5013 5.33333 11.308 5.33333 9.83464C5.33333 8.3613 6.52666 7.16797 7.99999 7.16797C9.47333 7.16797 10.6667 8.3613 10.6667 9.83464C10.6667 11.308 9.47333 12.5013 7.99999 12.5013ZM7.99999 8.16797C7.07999 8.16797 6.33333 8.91464 6.33333 9.83464C6.33333 10.7546 7.07999 11.5013 7.99999 11.5013C8.92 11.5013 9.66666 10.7546 9.66666 9.83464C9.66666 8.91464 8.92 8.16797 7.99999 8.16797Z" fill="white"/>
</svg>
