<svg width="20" height="20" viewBox="0 0 20 20" fill="none" xmlns="http://www.w3.org/2000/svg">
<path d="M1.66667 8.1263C1.32501 8.1263 1.04167 7.84297 1.04167 7.5013V5.41797C1.04167 3.00964 3.00834 1.04297 5.41667 1.04297H7.50001C7.84167 1.04297 8.12501 1.3263 8.12501 1.66797C8.12501 2.00964 7.84167 2.29297 7.50001 2.29297H5.41667C3.69167 2.29297 2.29167 3.69297 2.29167 5.41797V7.5013C2.29167 7.84297 2.00834 8.1263 1.66667 8.1263Z" fill="#807E7E"/>
<path d="M18.3333 8.1263C17.9917 8.1263 17.7083 7.84297 17.7083 7.5013V5.41797C17.7083 3.69297 16.3083 2.29297 14.5833 2.29297H12.5C12.1583 2.29297 11.875 2.00964 11.875 1.66797C11.875 1.3263 12.1583 1.04297 12.5 1.04297H14.5833C16.9917 1.04297 18.9583 3.00964 18.9583 5.41797V7.5013C18.9583 7.84297 18.675 8.1263 18.3333 8.1263Z" fill="#807E7E"/>
<path d="M14.5833 18.957H13.3333C12.9917 18.957 12.7083 18.6737 12.7083 18.332C12.7083 17.9904 12.9917 17.707 13.3333 17.707H14.5833C16.3083 17.707 17.7083 16.307 17.7083 14.582V13.332C17.7083 12.9904 17.9917 12.707 18.3333 12.707C18.675 12.707 18.9583 12.9904 18.9583 13.332V14.582C18.9583 16.9904 16.9917 18.957 14.5833 18.957Z" fill="#807E7E"/>
<path d="M7.50001 18.9583H5.41667C3.00834 18.9583 1.04167 16.9917 1.04167 14.5833V12.5C1.04167 12.1583 1.32501 11.875 1.66667 11.875C2.00834 11.875 2.29167 12.1583 2.29167 12.5V14.5833C2.29167 16.3083 3.69167 17.7083 5.41667 17.7083H7.50001C7.84167 17.7083 8.12501 17.9917 8.12501 18.3333C8.12501 18.675 7.84167 18.9583 7.50001 18.9583Z" fill="#807E7E"/>
<path d="M15 12.2904C14.6583 12.2904 14.375 12.007 14.375 11.6654V10.6237H5.625V11.6654C5.625 12.007 5.34167 12.2904 5 12.2904C4.65833 12.2904 4.375 12.007 4.375 11.6654V8.33203C4.375 7.99036 4.65833 7.70703 5 7.70703C5.34167 7.70703 5.625 7.99036 5.625 8.33203V9.3737H14.375V8.33203C14.375 7.99036 14.6583 7.70703 15 7.70703C15.3417 7.70703 15.625 7.99036 15.625 8.33203V11.6654C15.625 12.007 15.3417 12.2904 15 12.2904Z" fill="#807E7E"/>
<path d="M11.6667 15.625H8.33333C7.99166 15.625 7.70833 15.3417 7.70833 15C7.70833 14.6583 7.99166 14.375 8.33333 14.375H9.37499V5.625H8.33333C7.99166 5.625 7.70833 5.34167 7.70833 5C7.70833 4.65833 7.99166 4.375 8.33333 4.375H11.6667C12.0083 4.375 12.2917 4.65833 12.2917 5C12.2917 5.34167 12.0083 5.625 11.6667 5.625H10.625V14.375H11.6667C12.0083 14.375 12.2917 14.6583 12.2917 15C12.2917 15.3417 12.0083 15.625 11.6667 15.625Z" fill="#807E7E"/>
</svg>
