<svg width="20" height="20" viewBox="0 0 20 20" fill="none" xmlns="http://www.w3.org/2000/svg">
<path d="M2.5 10.9025C2.5 10.8383 2.5 10.8058 2.50167 10.7792C2.5148 10.5773 2.60093 10.3871 2.74399 10.244C2.88705 10.1009 3.07727 10.0148 3.27917 10.0017C3.30667 10 3.3375 10 3.4025 10H16.5975C16.6617 10 16.6933 10 16.7208 10.0017C16.9227 10.0148 17.1129 10.1009 17.256 10.244C17.3991 10.3871 17.4852 10.5773 17.4983 10.7792C17.5 10.8058 17.5 10.8375 17.5 10.9025C17.5 11.2317 17.5 11.3967 17.4883 11.5817C17.3142 14.3208 14.9858 16.7392 12.255 17.015C12.0708 17.0342 11.9633 17.0383 11.7483 17.0467C11.1658 17.0696 10.583 17.0818 10 17.0833C9.45833 17.0833 8.86333 17.0692 8.25167 17.0467C8.03667 17.0383 7.92917 17.0342 7.74583 17.0158C5.01417 16.7392 2.68583 14.3208 2.5125 11.5817C2.5 11.3967 2.5 11.2317 2.5 10.9025Z" stroke="#807E7E" stroke-width="1.2"/>
<path d="M4.99999 16.6667L4.16666 18.3333M15 16.6667L15.8333 18.3333M1.66666 10H18.3333" stroke="#807E7E" stroke-width="1.2" stroke-linecap="round"/>
<path d="M1.875 10.8307C1.875 10.9965 1.94085 11.1555 2.05806 11.2727C2.17527 11.3899 2.33424 11.4557 2.5 11.4557C2.66576 11.4557 2.82473 11.3899 2.94194 11.2727C3.05915 11.1555 3.125 10.9965 3.125 10.8307H1.875ZM5.28833 7.2824L4.70667 7.51156C4.73743 7.58935 4.7835 7.66016 4.84214 7.71981C4.90078 7.77947 4.9708 7.82674 5.04804 7.85883C5.12529 7.89093 5.20819 7.90719 5.29184 7.90666C5.37548 7.90613 5.45817 7.88881 5.535 7.85573L5.28833 7.2824ZM10.255 5.14323L10.5025 5.71823C10.6517 5.65398 10.7699 5.5342 10.8323 5.38426C10.8947 5.23431 10.8963 5.06597 10.8367 4.9149L10.255 5.14323ZM3.125 10.8307V3.65156H1.875V10.8307H3.125ZM4.4875 2.28906C5.045 2.28906 5.54583 2.62823 5.7525 3.14573L6.91333 2.68073C6.7195 2.196 6.38489 1.78129 5.95265 1.48852C5.52042 1.19576 5.01038 1.03921 4.48833 1.03906L4.4875 2.28906ZM3.125 3.65156C3.125 2.89906 3.735 2.28906 4.4875 2.28906L4.48833 1.03906C3.79546 1.03906 3.13012 1.31431 2.64018 1.80425C2.15024 2.29418 1.875 2.95868 1.875 3.65156H3.125ZM5.7525 3.14573L6.06917 3.93573L7.22917 3.47156L6.91333 2.68073L5.7525 3.14573ZM5.86917 7.05323C5.65963 6.51895 5.6638 5.92451 5.88083 5.39323L4.7225 4.9224C4.38447 5.75125 4.37934 6.67842 4.70667 7.51156L5.86917 7.05323ZM10.0083 4.5699L5.04083 6.70823L5.535 7.85573L10.5017 5.7174L10.0083 4.5699ZM8.56833 4.22073C9.08667 4.4424 9.4725 4.86156 9.67417 5.3724L10.8367 4.9149C10.6778 4.50502 10.4389 4.13007 10.1339 3.81357C9.82882 3.49708 9.46375 3.24454 9.06 3.07073L8.56833 4.22073ZM5.88083 5.39323C6.07664 4.90128 6.44774 4.50014 6.9225 4.26573L6.37583 3.1424C5.62384 3.51123 5.03492 4.14527 4.7225 4.9224L5.88083 5.39323ZM6.9225 4.26573C7.17735 4.13987 7.45644 4.07075 7.74057 4.06313C8.0247 4.0555 8.3071 4.10872 8.56833 4.22073L9.06 3.07073C8.6339 2.88848 8.17345 2.80129 7.71017 2.81351C7.24689 2.82574 6.79173 2.93793 6.37583 3.1424L6.9225 4.26573Z" fill="#807E7E"/>
</svg>
