<svg width="54" height="20" viewBox="0 0 54 20" fill="none" xmlns="http://www.w3.org/2000/svg">
<path d="M14.543 18.9596C13.6013 18.9596 12.6096 18.7346 11.5846 18.3013C10.5846 17.8763 9.5763 17.293 8.59297 16.5846C7.61797 15.868 6.6763 15.068 5.78464 14.193C4.9013 13.3013 4.1013 12.3596 3.39297 11.393C2.6763 10.393 2.1013 9.39297 1.69297 8.4263C1.25964 7.39297 1.04297 6.39297 1.04297 5.4513C1.04297 4.8013 1.15964 4.18464 1.38464 3.60964C1.61797 3.01797 1.99297 2.46797 2.5013 1.99297C3.14297 1.35964 3.8763 1.04297 4.65964 1.04297C4.98464 1.04297 5.31797 1.11797 5.6013 1.2513C5.9263 1.4013 6.2013 1.6263 6.4013 1.9263L8.33464 4.6513C8.50964 4.89297 8.64297 5.1263 8.73464 5.35964C8.84297 5.60964 8.9013 5.85964 8.9013 6.1013C8.9013 6.41797 8.80964 6.7263 8.63464 7.01797C8.50964 7.24297 8.31797 7.48464 8.0763 7.7263L7.50964 8.31797C7.51797 8.34297 7.5263 8.35964 7.53464 8.3763C7.63464 8.5513 7.83464 8.8513 8.21797 9.3013C8.6263 9.76797 9.00964 10.193 9.39297 10.5846C9.88464 11.068 10.293 11.4513 10.6763 11.768C11.1513 12.168 11.4596 12.368 11.643 12.4596L11.6263 12.5013L12.2346 11.9013C12.493 11.643 12.743 11.4513 12.9846 11.3263C13.443 11.043 14.0263 10.993 14.6096 11.2346C14.8263 11.3263 15.0596 11.4513 15.3096 11.6263L18.0763 13.593C18.3846 13.8013 18.6096 14.068 18.743 14.3846C18.868 14.7013 18.9263 14.993 18.9263 15.2846C18.9263 15.6846 18.8346 16.0846 18.6596 16.4596C18.4846 16.8346 18.268 17.1596 17.993 17.4596C17.518 17.9846 17.0013 18.3596 16.4013 18.6013C15.8263 18.8346 15.2013 18.9596 14.543 18.9596ZM4.65964 2.29297C4.2013 2.29297 3.7763 2.49297 3.36797 2.89297C2.98464 3.2513 2.71797 3.64297 2.5513 4.06797C2.3763 4.5013 2.29297 4.95964 2.29297 5.4513C2.29297 6.2263 2.4763 7.06797 2.84297 7.93464C3.21797 8.81797 3.74297 9.73464 4.40964 10.6513C5.0763 11.568 5.83464 12.4596 6.66797 13.3013C7.5013 14.1263 8.4013 14.893 9.3263 15.568C10.2263 16.2263 11.1513 16.7596 12.068 17.143C13.493 17.7513 14.8263 17.893 15.9263 17.4346C16.3513 17.2596 16.7263 16.993 17.068 16.6096C17.2596 16.4013 17.4096 16.1763 17.5346 15.9096C17.6346 15.7013 17.6846 15.4846 17.6846 15.268C17.6846 15.1346 17.6596 15.0013 17.593 14.8513C17.568 14.8013 17.518 14.7096 17.3596 14.6013L14.593 12.6346C14.4263 12.518 14.2763 12.4346 14.1346 12.3763C13.9513 12.3013 13.8763 12.2263 13.593 12.4013C13.4263 12.4846 13.2763 12.6096 13.1096 12.7763L12.4763 13.4013C12.1513 13.718 11.6513 13.793 11.268 13.6513L11.043 13.5513C10.7013 13.368 10.3013 13.0846 9.85964 12.7096C9.45964 12.368 9.0263 11.968 8.5013 11.4513C8.09297 11.0346 7.68464 10.593 7.25964 10.1013C6.86797 9.64297 6.58464 9.2513 6.40964 8.9263L6.30964 8.6763C6.25964 8.48463 6.24297 8.3763 6.24297 8.25963C6.24297 7.95964 6.3513 7.69297 6.55964 7.48463L7.18464 6.83464C7.3513 6.66797 7.4763 6.50963 7.55964 6.36797C7.6263 6.25963 7.6513 6.16797 7.6513 6.08464C7.6513 6.01797 7.6263 5.91797 7.58464 5.81797C7.5263 5.68464 7.43464 5.53464 7.31797 5.3763L5.38464 2.64297C5.3013 2.5263 5.2013 2.44297 5.0763 2.38464C4.94297 2.3263 4.8013 2.29297 4.65964 2.29297ZM11.6263 12.5096L11.493 13.0763L11.718 12.493C11.6763 12.4846 11.643 12.493 11.6263 12.5096Z" fill="#305E82"/>
<path d="M49.4011 17.4028C49.1686 17.4028 48.9361 17.3428 48.7261 17.2153L45.7186 15.4303C45.4036 15.4228 45.0886 15.4003 44.7886 15.3553C44.5861 15.3253 44.4136 15.1903 44.3386 14.9953C44.2636 14.8003 44.3011 14.5903 44.4361 14.4328C44.9311 13.8553 45.1861 13.1653 45.1861 12.4303C45.1861 10.6153 43.5886 9.13779 41.6236 9.13779C40.8886 9.13779 40.1836 9.34032 39.5911 9.73032C39.4261 9.83532 39.2236 9.85031 39.0436 9.76781C38.8711 9.68531 38.7436 9.52029 38.7211 9.32529C38.6986 9.11529 38.6836 8.90531 38.6836 8.68781C38.6836 4.96781 41.9086 1.94531 45.8686 1.94531C49.8286 1.94531 53.0536 4.96781 53.0536 8.68781C53.0536 10.7278 52.1086 12.6028 50.4436 13.8853L50.6986 15.9253C50.7586 16.4353 50.5336 16.9153 50.1061 17.1928C49.8961 17.3278 49.6486 17.4028 49.4011 17.4028ZM45.8611 14.2978C45.9661 14.2903 46.0711 14.3203 46.1611 14.3803L49.3036 16.2478C49.3861 16.3003 49.4536 16.2778 49.4986 16.2478C49.5361 16.2253 49.5961 16.1653 49.5811 16.0603L49.2886 13.6903C49.2661 13.4803 49.3561 13.2778 49.5211 13.1578C51.0511 12.0853 51.9286 10.4503 51.9286 8.67279C51.9286 5.57529 49.2136 3.0553 45.8686 3.0553C42.6511 3.0553 40.0111 5.39533 39.8161 8.33533C40.3786 8.11783 40.9861 7.99782 41.6161 7.99782C44.2036 7.99782 46.3036 9.97778 46.3036 12.4153C46.3111 13.0753 46.1536 13.7128 45.8611 14.2978Z" fill="#305E82"/>
<path d="M39.4353 18.0614C39.2403 18.0614 39.0528 18.0089 38.8803 17.8964C38.5428 17.6789 38.3628 17.3039 38.4078 16.9064L38.5578 15.7514C37.5453 14.9264 36.9453 13.7039 36.9453 12.4214C36.9453 10.9589 37.7103 9.59388 38.9928 8.77638C39.7653 8.27388 40.6803 8.00391 41.6328 8.00391C44.2203 8.00391 46.3203 9.98387 46.3203 12.4214C46.3203 13.4114 45.9603 14.3864 45.3003 15.1589C44.4528 16.1864 43.1853 16.7864 41.7903 16.8314L39.9603 17.9189C39.7953 18.0164 39.6153 18.0614 39.4353 18.0614ZM41.6253 9.12891C40.8903 9.12891 40.1853 9.33139 39.5928 9.72139C38.6328 10.3364 38.0628 11.3414 38.0628 12.4214C38.0628 13.4639 38.5728 14.4164 39.4728 15.0314C39.6453 15.1514 39.7353 15.3539 39.7128 15.5639L39.5478 16.8464L41.3403 15.7814C41.4303 15.7289 41.5278 15.6989 41.6253 15.6989C42.7278 15.6989 43.7703 15.2264 44.4303 14.4239C44.9253 13.8389 45.1878 13.1489 45.1878 12.4139C45.1878 10.6064 43.5903 9.12891 41.6253 9.12891Z" fill="#305E82"/>
</svg>
