<svg width="20" height="20" viewBox="0 0 20 20" fill="none" xmlns="http://www.w3.org/2000/svg">
<path d="M9.8711 0.71875C8.09107 0.71875 6.35101 1.24659 4.87097 2.23552C3.39092 3.22446 2.23737 4.63006 1.55618 6.2746C0.874993 7.91913 0.696763 9.72873 1.04403 11.4746C1.3913 13.2204 2.24846 14.824 3.50714 16.0827C4.76581 17.3414 6.36946 18.1986 8.11528 18.5458C9.86111 18.8931 11.6707 18.7149 13.3152 18.0337C14.9598 17.3525 16.3654 16.1989 17.3543 14.7189C18.3433 13.2388 18.8711 11.4988 18.8711 9.71875C18.8711 7.3318 17.9229 5.04262 16.2351 3.35479C14.5472 1.66696 12.258 0.71875 9.8711 0.71875ZM14.1011 7.17875L9.6611 13.3387C9.52884 13.5173 9.33584 13.6413 9.11847 13.6873C8.9011 13.7334 8.67439 13.6983 8.4811 13.5887L5.9311 12.0988C5.72423 11.9741 5.57535 11.7724 5.51721 11.538C5.45908 11.3035 5.49645 11.0556 5.6211 10.8488C5.74575 10.6419 5.94747 10.493 6.18189 10.4349C6.41631 10.3767 6.66423 10.4141 6.8711 10.5387L8.6811 11.6187L12.6811 6.12875C12.8296 5.98003 13.0254 5.88794 13.2346 5.86845C13.4438 5.84896 13.6533 5.90329 13.8267 6.02204C14 6.14079 14.1264 6.31645 14.1838 6.51859C14.2412 6.72073 14.2261 6.93659 14.1411 7.12875L14.1011 7.17875Z" fill="#305E82"/>
</svg>
