<svg width="32" height="32" viewBox="0 0 32 32" fill="none" xmlns="http://www.w3.org/2000/svg">
<rect x="10" y="8" width="12" height="16" fill="white"/>
<path fill-rule="evenodd" clip-rule="evenodd" d="M9.33463 2.66797C7.56652 2.66797 5.87083 3.37035 4.62059 4.62059C3.37035 5.87083 2.66797 7.56652 2.66797 9.33463V22.668C2.66797 24.4361 3.37035 26.1318 4.62059 27.382C5.87083 28.6323 7.56652 29.3346 9.33463 29.3346H22.668C24.4361 29.3346 26.1318 28.6323 27.382 27.382C28.6323 26.1318 29.3346 24.4361 29.3346 22.668V9.33463C29.3346 7.56652 28.6323 5.87083 27.382 4.62059C26.1318 3.37035 24.4361 2.66797 22.668 2.66797H9.33463ZM20.9746 14.2466C21.0944 14.1188 21.1878 13.9687 21.2496 13.8047C21.3113 13.6408 21.3401 13.4663 21.3344 13.2913C21.3287 13.1162 21.2886 12.944 21.2164 12.7844C21.1441 12.6248 21.0411 12.4811 20.9133 12.3613C20.7855 12.2415 20.6353 12.1481 20.4714 12.0864C20.3075 12.0247 20.133 11.9958 19.9579 12.0015C19.7829 12.0072 19.6106 12.0473 19.4511 12.1196C19.2915 12.1918 19.1477 12.2948 19.028 12.4226L14.9173 16.8093L12.8866 15.0053C12.6206 14.7841 12.279 14.675 11.934 14.7011C11.589 14.7271 11.2676 14.8862 11.0377 15.1448C10.8079 15.4034 10.6875 15.7412 10.7021 16.0869C10.7167 16.4325 10.8651 16.759 11.116 16.9973L14.116 19.664C14.3756 19.8946 14.7148 20.0148 15.0617 19.9991C15.4085 19.9834 15.7356 19.833 15.9733 19.58L20.9746 14.2466Z" fill="#305E82"/>
</svg>
