<svg width="20" height="20" viewBox="0 0 20 20" fill="none" xmlns="http://www.w3.org/2000/svg">
<path d="M9.87012 0.71875C8.09009 0.71875 6.35003 1.24659 4.86999 2.23552C3.38995 3.22446 2.23639 4.63006 1.55521 6.2746C0.874017 7.91913 0.695787 9.72873 1.04305 11.4746C1.39032 13.2204 2.24749 14.824 3.50616 16.0827C4.76483 17.3414 6.36848 18.1986 8.11431 18.5458C9.86014 18.8931 11.6697 18.7149 13.3143 18.0337C14.9588 17.3525 16.3644 16.1989 17.3533 14.7189C18.3423 13.2388 18.8701 11.4988 18.8701 9.71875C18.8701 7.3318 17.9219 5.04262 16.2341 3.35479C14.5463 1.66696 12.2571 0.71875 9.87012 0.71875ZM14.1001 7.17875L9.66012 13.3387C9.52787 13.5173 9.33486 13.6413 9.11749 13.6873C8.90012 13.7334 8.67342 13.6983 8.48012 13.5887L5.93012 12.0988C5.72325 11.9741 5.57437 11.7724 5.51624 11.538C5.4581 11.3035 5.49547 11.0556 5.62012 10.8488C5.74477 10.6419 5.9465 10.493 6.18092 10.4349C6.41534 10.3767 6.66325 10.4141 6.87012 10.5387L8.68012 11.6187L12.6801 6.12875C12.8286 5.98003 13.0244 5.88794 13.2336 5.86845C13.4429 5.84896 13.6523 5.90329 13.8257 6.02204C13.999 6.14079 14.1254 6.31645 14.1828 6.51859C14.2403 6.72073 14.2252 6.93659 14.1401 7.12875L14.1001 7.17875Z" fill="#FFAE00"/>
</svg>
