<svg width="165" height="165" viewBox="0 0 165 165" fill="none" xmlns="http://www.w3.org/2000/svg">
<g clip-path="url(#clip0_463_22660)">
<path d="M111.191 78.1262C110.805 76.5473 110.286 75.037 109.646 73.6089C109.137 72.4674 108.547 71.3807 107.864 70.3466L83.866 34.2305C82.9315 32.851 81.9384 31.7084 80.9095 30.8072C79.8807 29.9059 78.7932 29.2416 77.6698 28.8187L64.3911 24.1026L48.5787 18.4958C47.3006 18.0778 46.1168 18.0216 45.0227 18.3498L44.9885 18.343C44.5063 18.5081 44.0469 18.7369 43.6106 19.0293C42.1651 19.9981 41.2064 21.6782 40.7342 24.0696L35.3895 51.1384C32.7498 64.5076 33.2285 79.5811 36.8414 96.3382C40.452 113.107 46.8034 127.979 55.9138 140.982C56.3205 141.56 56.7361 142.091 57.1493 142.575C57.5739 143.061 58.0508 143.522 58.5642 143.979C59.0797 144.423 59.5724 144.805 60.0352 145.097C60.4867 145.387 60.9607 145.623 61.4416 145.824C68.5603 148.721 75.111 149.281 81.0891 147.468C84.1964 146.531 87.1315 144.969 89.9329 142.766C90.7304 142.142 91.5005 141.478 92.2295 140.782C99.1524 134.363 103.794 125.117 106.177 113.046L111.522 85.9768C111.994 83.5854 111.883 80.9723 111.191 78.1262ZM88.6027 94.3125L87.1471 94.7942L65.2384 102.146L64.9974 102.229C63.8828 102.6 62.7414 102.269 61.5597 101.242C60.3802 100.205 59.4524 98.7322 58.8012 96.817L51.9128 76.5143C51.2525 74.5855 51.0752 72.8467 51.3877 71.2638C51.7003 69.681 52.4105 68.7208 53.525 68.3493C54.6282 67.9755 55.7831 68.2982 56.9626 69.3357C57.882 70.1324 58.6404 71.2051 59.2287 72.5399C59.4118 72.931 59.5698 73.329 59.7211 73.7611L64.3321 87.2013L81.0047 81.6195L83.907 80.6426C84.769 80.3514 85.6641 80.4926 86.5921 81.0663L86.6034 81.0685C86.8679 81.2272 87.1346 81.4337 87.4061 81.6766C88.6153 82.7436 89.5523 84.2301 90.2149 86.1475C90.8752 88.0763 91.0504 89.8265 90.7401 91.398C90.4298 92.9695 89.7173 93.941 88.6027 94.3125Z" fill="#75A3C7" fill-opacity="0.5" stroke="white" stroke-width="3" stroke-linecap="round" stroke-linejoin="round"/>
<path d="M86.5929 81.0604L81.313 82.5144L64.333 87.1954L81.0056 81.6136L83.9079 80.6367C84.7699 80.3455 85.665 80.4867 86.5929 81.0604Z" fill="#75A3C7" fill-opacity="0.5" stroke="white" stroke-width="3" stroke-linecap="round" stroke-linejoin="round"/>
<path d="M87.1484 94.7869L65.2397 102.139L64.9986 102.222C63.884 102.593 62.7427 102.261 61.561 101.235C60.3815 100.198 59.4537 98.7248 58.8025 96.8097L51.914 76.507C51.2537 74.5782 51.0765 72.8394 51.3891 71.2565C51.7016 69.6736 52.4117 68.7135 53.5262 68.342C54.6294 67.9682 55.7844 68.2909 56.9639 69.3283C57.8833 70.1251 58.6417 71.1977 59.23 72.5326C59.4131 72.9237 59.5711 73.3217 59.7224 73.7538L64.3334 87.194L81.3133 82.5129L83.8265 89.9189C84.4777 91.834 85.4055 93.3069 86.585 94.3443C86.7766 94.5123 86.9614 94.6553 87.1484 94.7869Z" fill="#75A3C7" fill-opacity="0.5" stroke="white" stroke-width="3" stroke-linecap="round" stroke-linejoin="round"/>
<path d="M70.2948 11.3979L70.0468 11.4554L70.1605 11.4187C70.1605 11.4187 70.247 11.4003 70.2948 11.3979Z" fill="#75A3C7" fill-opacity="0.5" stroke="white" stroke-width="3" stroke-linecap="round" stroke-linejoin="round"/>
<path d="M136.547 79.0769L131.203 106.146C128.563 119.515 123.151 129.426 114.958 135.866C112.479 137.814 109.897 139.268 107.177 140.221C107.152 140.228 107.115 140.233 107.088 140.251C106.935 140.304 106.772 140.354 106.619 140.407C106.594 140.414 106.556 140.43 106.519 140.435L105.354 140.761L104.554 140.981L81.0902 147.459C84.1975 146.522 87.1327 144.96 89.9341 142.757C90.7316 142.133 91.5017 141.469 92.2307 140.773C99.1536 134.354 103.795 125.107 106.179 113.036L111.523 85.9677C111.996 83.5763 111.884 80.9631 111.192 78.117C110.806 76.5381 110.288 75.0278 109.647 73.5998C109.139 72.4583 108.548 71.3715 107.865 70.3374L83.8672 34.2214C82.9327 32.8418 81.9395 31.6992 80.9106 30.798C79.8818 29.8968 78.7944 29.2325 77.671 28.8095L64.3923 24.0935L48.5799 18.4867C47.3018 18.0687 46.118 18.0124 45.0239 18.3406L69.9728 11.4705L70.0478 11.4498L70.2958 11.3923C71.3173 11.1326 72.4146 11.2073 73.6039 11.5959L102.695 21.9187C103.818 22.3417 104.906 23.006 105.935 23.9072C106.964 24.8084 107.957 25.9511 108.891 27.3306L132.889 63.4466C134.416 65.7831 135.524 68.3801 136.216 71.2262C136.908 74.0723 137.02 76.6855 136.547 79.0769Z" fill="#75A3C7" fill-opacity="0.5" stroke="white" stroke-width="3" stroke-linecap="round" stroke-linejoin="round"/>
<path d="M70.4337 11.3542L70.2949 11.3978L70.4337 11.3542Z" fill="#75A3C7" fill-opacity="0.5"/>
<path d="M70.4337 11.3542L70.2949 11.3978" stroke="white" stroke-width="3" stroke-linecap="round" stroke-linejoin="round"/>
<path d="M81.0892 147.467L79.9745 147.78L81.0892 147.467Z" fill="#75A3C7" fill-opacity="0.5"/>
<path d="M81.0892 147.467L79.9745 147.78" stroke="white" stroke-width="3" stroke-linecap="round" stroke-linejoin="round"/>
</g>
<defs>
<clipPath id="clip0_463_22660">
<rect width="140" height="140" fill="white" transform="translate(27.2067) scale(1.00323) rotate(11.1692)"/>
</clipPath>
</defs>
</svg>
