<svg width="24" height="24" viewBox="0 0 24 24" fill="none" xmlns="http://www.w3.org/2000/svg">
<path d="M12 21C16.9706 21 21 16.9706 21 12C21 7.02944 16.9706 3 12 3C7.02944 3 3 7.02944 3 12C3 16.9706 7.02944 21 12 21Z" stroke="#EA651A" stroke-width="1.5" stroke-linecap="round" stroke-linejoin="round"/>
<path d="M12 16H12.01V16.01H12V16Z" stroke="#EA651A" stroke-width="2.25" stroke-linejoin="round"/>
<path d="M10.5859 7.586C10.9759 7.196 11.4859 7.001 11.9959 7C12.2592 6.99953 12.52 7.05106 12.7634 7.15162C13.0067 7.25218 13.2278 7.3998 13.4139 7.586C13.8039 7.976 13.9999 8.488 13.9999 9C13.9999 9.512 13.8049 10.024 13.4139 10.414C13.2278 10.6002 13.0067 10.7478 12.7634 10.8484C12.52 10.9489 12.2592 11.0005 11.9959 11L11.9999 12" stroke="#EA651A" stroke-width="1.5" stroke-linecap="round" stroke-linejoin="round"/>
</svg>
