<svg width="20" height="20" viewBox="0 0 20 20" fill="none" xmlns="http://www.w3.org/2000/svg">
<path d="M12.4998 18.9596H7.49984C2.97484 18.9596 1.0415 17.0263 1.0415 12.5013V7.5013C1.0415 2.9763 2.97484 1.04297 7.49984 1.04297H9.1665C9.50817 1.04297 9.7915 1.3263 9.7915 1.66797C9.7915 2.00964 9.50817 2.29297 9.1665 2.29297H7.49984C3.65817 2.29297 2.2915 3.65964 2.2915 7.5013V12.5013C2.2915 16.343 3.65817 17.7096 7.49984 17.7096H12.4998C16.3415 17.7096 17.7082 16.343 17.7082 12.5013V10.8346C17.7082 10.493 17.9915 10.2096 18.3332 10.2096C18.6748 10.2096 18.9582 10.493 18.9582 10.8346V12.5013C18.9582 17.0263 17.0248 18.9596 12.4998 18.9596Z" fill="white"/>
<path d="M7.08311 14.7424C6.57478 14.7424 6.10811 14.5591 5.76645 14.2258C5.35811 13.8174 5.18311 13.2258 5.27478 12.6008L5.63311 10.0924C5.69978 9.60911 6.01645 8.98411 6.35811 8.64245L12.9248 2.07578C14.5831 0.417448 16.2664 0.417448 17.9248 2.07578C18.8331 2.98411 19.2414 3.90911 19.1581 4.83411C19.0831 5.58411 18.6831 6.31745 17.9248 7.06745L11.3581 13.6341C11.0164 13.9758 10.3914 14.2924 9.90811 14.3591L7.39978 14.7174C7.29145 14.7424 7.18311 14.7424 7.08311 14.7424ZM13.8081 2.95911L7.24145 9.52578C7.08311 9.68411 6.89978 10.0508 6.86645 10.2674L6.50811 12.7758C6.47478 13.0174 6.52478 13.2174 6.64978 13.3424C6.77478 13.4674 6.97478 13.5174 7.21645 13.4841L9.72478 13.1258C9.94145 13.0924 10.3164 12.9091 10.4664 12.7508L17.0331 6.18411C17.5748 5.64245 17.8581 5.15911 17.8998 4.70911C17.9498 4.16745 17.6664 3.59245 17.0331 2.95078C15.6998 1.61745 14.7831 1.99245 13.8081 2.95911Z" fill="white"/>
<path d="M16.5418 8.19319C16.4835 8.19319 16.4251 8.18486 16.3751 8.16819C14.1835 7.55153 12.4418 5.80986 11.8251 3.61819C11.7335 3.28486 11.9251 2.94319 12.2585 2.84319C12.5918 2.75153 12.9335 2.94319 13.0251 3.27653C13.5251 5.05153 14.9335 6.45986 16.7085 6.95986C17.0418 7.05153 17.2335 7.40153 17.1418 7.73486C17.0668 8.01819 16.8168 8.19319 16.5418 8.19319Z" fill="white"/>
</svg>
