<svg width="60" height="60" viewBox="0 0 60 60" fill="none" xmlns="http://www.w3.org/2000/svg">
<path d="M37.4922 56.8789H22.4922C8.91719 56.8789 3.11719 51.0789 3.11719 37.5039V22.5039C3.11719 8.92891 8.91719 3.12891 22.4922 3.12891H27.4922C28.5172 3.12891 29.3672 3.97891 29.3672 5.00391C29.3672 6.02891 28.5172 6.87891 27.4922 6.87891H22.4922C10.9672 6.87891 6.86719 10.9789 6.86719 22.5039V37.5039C6.86719 49.0289 10.9672 53.1289 22.4922 53.1289H37.4922C49.0172 53.1289 53.1172 49.0289 53.1172 37.5039V32.5039C53.1172 31.4789 53.9672 30.6289 54.9922 30.6289C56.0172 30.6289 56.8672 31.4789 56.8672 32.5039V37.5039C56.8672 51.0789 51.0672 56.8789 37.4922 56.8789Z" fill="#305E82"/>
<path d="M21.2464 44.2273C19.7214 44.2273 18.3214 43.6773 17.2964 42.6773C16.0714 41.4523 15.5464 39.6773 15.8214 37.8023L16.8964 30.2773C17.0964 28.8273 18.0464 26.9523 19.0714 25.9273L38.7714 6.22734C43.7464 1.25234 48.7964 1.25234 53.7714 6.22734C56.4964 8.95234 57.7214 11.7273 57.4714 14.5023C57.2464 16.7523 56.0464 18.9523 53.7714 21.2023L34.0714 40.9023C33.0464 41.9273 31.1714 42.8773 29.7214 43.0773L22.1964 44.1523C21.8714 44.2273 21.5464 44.2273 21.2464 44.2273ZM41.4214 8.87734L21.7214 28.5773C21.2464 29.0523 20.6964 30.1523 20.5964 30.8023L19.5214 38.3273C19.4214 39.0523 19.5714 39.6523 19.9464 40.0273C20.3214 40.4023 20.9214 40.5523 21.6464 40.4523L29.1714 39.3773C29.8214 39.2773 30.9464 38.7273 31.3964 38.2523L51.0964 18.5523C52.7214 16.9273 53.5714 15.4773 53.6964 14.1273C53.8464 12.5023 52.9964 10.7773 51.0964 8.85234C47.0964 4.85234 44.3464 5.97734 41.4214 8.87734Z" fill="#305E82"/>
<path d="M49.6327 24.5796C49.4577 24.5796 49.2827 24.5546 49.1327 24.5046C42.5577 22.6546 37.3327 17.4296 35.4827 10.8546C35.2077 9.85458 35.7827 8.82958 36.7827 8.52958C37.7827 8.25458 38.8077 8.82958 39.0827 9.82958C40.5827 15.1546 44.8077 19.3796 50.1327 20.8796C51.1327 21.1546 51.7077 22.2046 51.4327 23.2046C51.2077 24.0546 50.4577 24.5796 49.6327 24.5796Z" fill="#305E82"/>
</svg>
