<svg width="220" height="150" viewBox="0 0 220 150" fill="none" xmlns="http://www.w3.org/2000/svg">
<path opacity="0.05" fill-rule="evenodd" clip-rule="evenodd" d="M35 75C35 33.6 68.6 0 110 0C151.4 0 185 33.6 185 75C185 116.4 151.4 150 110 150C68.6 150 35 116.4 35 75ZM125.1 83.9C125.5 83.3 126.1 83 126.8 83H138.9L131.8 51.6C131.6 50.7 130.8 50 129.9 50H91.2C90.3 50 89.5 50.6 89.3 51.6L82.1 83H94.2C94.8 83 95.5 83.3 95.8 83.9L99.2 89H121.7L125.1 83.9ZM121.7 91C122.4 91 123 90.7 123.4 90.1L126.8 85H139V98C139 99.1 138.1 100 137 100H84C82.9 100 82 99.1 82 98V85H94.2L97.5 90.1C97.9 90.7 98.5 91 99.2 91H121.7Z" fill="#305E82"/>
<path opacity="0.1" fill-rule="evenodd" clip-rule="evenodd" d="M56 75C56 45.2 80.2 21 110 21C139.8 21 164 45.2 164 75C164 104.8 139.8 129 110 129C80.2 129 56 104.8 56 75ZM125.1 83.9C125.5 83.3 126.1 83 126.8 83H138.9L131.8 51.6C131.6 50.7 130.8 50 129.9 50H91.2C90.3 50 89.5 50.6 89.3 51.6L82.1 83H94.2C94.8 83 95.5 83.3 95.8 83.9L99.2 89H121.7L125.1 83.9ZM121.7 91C122.4 91 123 90.7 123.4 90.1L126.8 85H139V98C139 99.1 138.1 100 137 100H84C82.9 100 82 99.1 82 98V85H94.2L97.5 90.1C97.9 90.7 98.5 91 99.2 91H121.7Z" fill="#305E82"/>
<path opacity="0.2" d="M96.5 66.1992H124.5C125.3 66.1992 126 65.4992 126 64.6992C126 63.8992 125.3 63.1992 124.5 63.1992H96.5C95.7 63.1992 95 63.8992 95 64.6992C95 65.4992 95.7 66.1992 96.5 66.1992Z" fill="#305E82"/>
<path opacity="0.2" d="M96.5 74.1992H124.5C125.3 74.1992 126 73.4992 126 72.6992C126 71.8992 125.3 71.1992 124.5 71.1992H96.5C95.7 71.1992 95 71.8992 95 72.6992C95 73.4992 95.7 74.1992 96.5 74.1992Z" fill="#305E82"/>
<path fill-rule="evenodd" clip-rule="evenodd" d="M140.9 82.6V83L141 83.5V98C141 100.2 139.2 102 137 102H84C81.8 102 80 100.2 80 98V83H80.1V82.6L87.3 51.1C87.7 49.3 89.3 48 91.2 48H129.8C131.7 48 133.3 49.3 133.7 51.1L140.9 82.6ZM129.8 50H91.2C90.3 50 89.4 50.6 89.2 51.6L82.1 83H94.1C94.8 83 95.4 83.3 95.8 83.9L99.2 89H121.8L125.1 83.9C125.5 83.3 126.1 83 126.8 83H138.9L131.7 51.6C131.5 50.6 130.7 50 129.8 50ZM121.7 91C122.4 91 123 90.7 123.4 90.1L126.8 85H139V98C139 99.1 138.1 100 137 100H84C82.9 100 82 99.1 82 98V85H94.2L97.5 90.1C97.9 90.7 98.5 91 99.2 91H121.7Z" fill="#305E82"/>
<path opacity="0.4" d="M123.4 90.1C123 90.7 122.4 91 121.7 91H99.2C98.5 91 97.9 90.7 97.5 90.1L94.2 85H82V98C82 99.1 82.9 100 84 100H137C138.1 100 139 99.1 139 98V85H126.8L123.4 90.1Z" fill="#305E82"/>
</svg>
