<svg width="16" height="16" viewBox="0 0 16 16" fill="none" xmlns="http://www.w3.org/2000/svg">
<path d="M0.834636 12.668C0.834636 12.3946 1.0613 12.168 1.33464 12.168H8.66797C8.9413 12.168 9.16797 12.3946 9.16797 12.668C9.16797 12.9413 8.9413 13.168 8.66797 13.168H1.33464C1.0613 13.168 0.834636 12.9413 0.834636 12.668Z" fill="#121212"/>
<path d="M10.8346 12.668C10.8346 12.3946 11.0613 12.168 11.3346 12.168H14.668C14.9413 12.168 15.168 12.3946 15.168 12.668C15.168 12.9413 14.9413 13.168 14.668 13.168H11.3346C11.0613 13.168 10.8346 12.9413 10.8346 12.668Z" fill="#121212"/>
<path d="M0.834635 8C0.834635 7.72667 1.0613 7.5 1.33464 7.5H4.66797C4.9413 7.5 5.16797 7.72667 5.16797 8C5.16797 8.27333 4.9413 8.5 4.66797 8.5H1.33464C1.0613 8.5 0.834635 8.27333 0.834635 8Z" fill="#121212"/>
<path d="M6.83464 8C6.83464 7.72667 7.0613 7.5 7.33464 7.5H14.668C14.9413 7.5 15.168 7.72667 15.168 8C15.168 8.27333 14.9413 8.5 14.668 8.5H7.33464C7.0613 8.5 6.83464 8.27333 6.83464 8Z" fill="#121212"/>
<path d="M0.834636 3.33203C0.834636 3.0587 1.0613 2.83203 1.33464 2.83203H8.66797C8.9413 2.83203 9.16797 3.0587 9.16797 3.33203C9.16797 3.60536 8.9413 3.83203 8.66797 3.83203H1.33464C1.0613 3.83203 0.834636 3.60536 0.834636 3.33203Z" fill="#121212"/>
<path d="M10.8346 3.33203C10.8346 3.0587 11.0613 2.83203 11.3346 2.83203H14.668C14.9413 2.83203 15.168 3.0587 15.168 3.33203C15.168 3.60536 14.9413 3.83203 14.668 3.83203H11.3346C11.0613 3.83203 10.8346 3.60536 10.8346 3.33203Z" fill="#121212"/>
<path d="M8.16797 4.66667V2C8.16797 1.72667 8.39464 1.5 8.66797 1.5C8.9413 1.5 9.16797 1.72667 9.16797 2V4.66667C9.16797 4.94 8.9413 5.16667 8.66797 5.16667C8.39464 5.16667 8.16797 4.94 8.16797 4.66667Z" fill="#121212"/>
<path d="M8.16797 13.9987V11.332C8.16797 11.0587 8.39464 10.832 8.66797 10.832C8.9413 10.832 9.16797 11.0587 9.16797 11.332V13.9987C9.16797 14.272 8.9413 14.4987 8.66797 14.4987C8.39464 14.4987 8.16797 14.272 8.16797 13.9987Z" fill="#121212"/>
<path d="M6.83203 9.33464V6.66797C6.83203 6.39464 7.0587 6.16797 7.33203 6.16797C7.60536 6.16797 7.83203 6.39464 7.83203 6.66797V9.33464C7.83203 9.60797 7.60536 9.83464 7.33203 9.83464C7.0587 9.83464 6.83203 9.60797 6.83203 9.33464Z" fill="#121212"/>
</svg>
