<svg width="64" height="64" viewBox="0 0 64 64" fill="none" xmlns="http://www.w3.org/2000/svg">
<path d="M40 60.6654H24C9.51998 60.6654 3.33331 54.4787 3.33331 39.9987V23.9987C3.33331 9.5187 9.51998 3.33203 24 3.33203H40C54.48 3.33203 60.6666 9.5187 60.6666 23.9987V39.9987C60.6666 54.4787 54.48 60.6654 40 60.6654ZM24 7.33203C11.7066 7.33203 7.33331 11.7054 7.33331 23.9987V39.9987C7.33331 52.292 11.7066 56.6654 24 56.6654H40C52.2933 56.6654 56.6666 52.292 56.6666 39.9987V23.9987C56.6666 11.7054 52.2933 7.33203 40 7.33203H24Z" fill="#305E82"/>
<path d="M24 28.6667C19.9467 28.6667 16.6667 25.3867 16.6667 21.3333C16.6667 17.28 19.9467 14 24 14C28.0534 14 31.3334 17.28 31.3334 21.3333C31.3334 25.3867 28.0534 28.6667 24 28.6667ZM24 18C22.16 18 20.6667 19.4933 20.6667 21.3333C20.6667 23.1733 22.16 24.6667 24 24.6667C25.84 24.6667 27.3334 23.1733 27.3334 21.3333C27.3334 19.4933 25.84 18 24 18Z" fill="#305E82"/>
<path d="M7.12002 52.5322C6.48002 52.5322 5.84002 52.2122 5.46669 51.6522C4.85336 50.7455 5.09336 49.4922 6.02669 48.8789L19.1734 40.0522C22.0534 38.1055 26.0267 38.3455 28.64 40.5589L29.52 41.3322C30.8534 42.4789 33.12 42.4789 34.4267 41.3322L45.52 31.8122C48.3467 29.3855 52.8 29.3855 55.6534 31.8122L60 35.5455C60.8267 36.2655 60.9334 37.5189 60.2134 38.3722C59.4934 39.1989 58.24 39.3055 57.3867 38.5855L53.04 34.8522C51.7067 33.7055 49.44 33.7055 48.1067 34.8522L37.0134 44.3722C34.1867 46.7989 29.7334 46.7989 26.88 44.3722L26 43.5989C24.7734 42.5589 22.7467 42.4522 21.3867 43.3855L8.24002 52.2122C7.89336 52.4255 7.49336 52.5322 7.12002 52.5322Z" fill="#305E82"/>
</svg>
