<svg width="24" height="24" viewBox="0 0 24 24" fill="none" xmlns="http://www.w3.org/2000/svg">
<path d="M15.09 3.33047C15.28 3.33047 15.47 3.40047 15.62 3.55047C15.91 3.84047 15.91 4.32047 15.62 4.61047L9.10002 11.1305C8.62002 11.6105 8.62002 12.3905 9.10002 12.8705L15.62 19.3905C15.91 19.6805 15.91 20.1605 15.62 20.4505C15.33 20.7405 14.85 20.7405 14.56 20.4505L8.04002 13.9305C7.53002 13.4205 7.24002 12.7305 7.24002 12.0005C7.24002 11.2705 7.52002 10.5805 8.04002 10.0705L14.56 3.55047C14.71 3.41047 14.9 3.33047 15.09 3.33047Z" fill="white"/>
</svg>
