<svg width="20" height="20" viewBox="0 0 20 20" fill="none" xmlns="http://www.w3.org/2000/svg">
<path d="M10 16.875C6.20833 16.875 3.125 13.7917 3.125 10C3.125 6.20833 6.20833 3.125 10 3.125C13.7917 3.125 16.875 6.20833 16.875 10C16.875 13.7917 13.7917 16.875 10 16.875ZM10 4.375C6.9 4.375 4.375 6.9 4.375 10C4.375 13.1 6.9 15.625 10 15.625C13.1 15.625 15.625 13.1 15.625 10C15.625 6.9 13.1 4.375 10 4.375Z" fill="#305E82"/>
<path d="M10 13.125C8.275 13.125 6.875 11.725 6.875 10C6.875 8.275 8.275 6.875 10 6.875C11.725 6.875 13.125 8.275 13.125 10C13.125 11.725 11.725 13.125 10 13.125ZM10 8.125C8.96667 8.125 8.125 8.96667 8.125 10C8.125 11.0333 8.96667 11.875 10 11.875C11.0333 11.875 11.875 11.0333 11.875 10C11.875 8.96667 11.0333 8.125 10 8.125Z" fill="#305E82"/>
<path d="M10 3.95964C9.65833 3.95964 9.375 3.6763 9.375 3.33464V1.66797C9.375 1.3263 9.65833 1.04297 10 1.04297C10.3417 1.04297 10.625 1.3263 10.625 1.66797V3.33464C10.625 3.6763 10.3417 3.95964 10 3.95964Z" fill="#305E82"/>
<path d="M3.33329 10.625H1.66663C1.32496 10.625 1.04163 10.3417 1.04163 10C1.04163 9.65833 1.32496 9.375 1.66663 9.375H3.33329C3.67496 9.375 3.95829 9.65833 3.95829 10C3.95829 10.3417 3.67496 10.625 3.33329 10.625Z" fill="#305E82"/>
<path d="M10 18.9596C9.65833 18.9596 9.375 18.6763 9.375 18.3346V16.668C9.375 16.3263 9.65833 16.043 10 16.043C10.3417 16.043 10.625 16.3263 10.625 16.668V18.3346C10.625 18.6763 10.3417 18.9596 10 18.9596Z" fill="#305E82"/>
<path d="M18.3333 10.625H16.6666C16.325 10.625 16.0416 10.3417 16.0416 10C16.0416 9.65833 16.325 9.375 16.6666 9.375H18.3333C18.675 9.375 18.9583 9.65833 18.9583 10C18.9583 10.3417 18.675 10.625 18.3333 10.625Z" fill="#305E82"/>
</svg>
