<svg width="156" height="32" viewBox="0 0 156 32" fill="none" xmlns="http://www.w3.org/2000/svg">
<g clip-path="url(#clip0_531_24055)">
<path d="M32 16C32 7.1635 24.8365 0 16 0C7.1635 0 0 7.1635 0 16C0 23.986 5.851 30.6054 13.5 31.8056V20.625H9.4375V16H13.5V12.475C13.5 8.465 15.8888 6.25 19.5435 6.25C21.294 6.25 23.125 6.5625 23.125 6.5625V10.5H21.1075C19.1199 10.5 18.5 11.7334 18.5 12.9988V16H22.9375L22.2281 20.625H18.5V31.8056C26.149 30.6054 32 23.9861 32 16Z" fill="#1A73E1"/>
<path d="M22.2281 20.625L22.9375 16H18.5V12.9987C18.5 11.7332 19.1199 10.5 21.1075 10.5H23.125V6.5625C23.125 6.5625 21.294 6.25 19.5434 6.25C15.8888 6.25 13.5 8.465 13.5 12.475V16H9.4375V20.625H13.5V31.8056C14.327 31.9352 15.1629 32.0002 16 32C16.8371 32.0002 17.673 31.9352 18.5 31.8056V20.625H22.2281Z" fill="white"/>
</g>
<g clip-path="url(#clip1_531_24055)">
<path d="M88.5 0H71.5C67.3579 0 64 3.35786 64 7.5V24.5C64 28.6421 67.3579 32 71.5 32H88.5C92.6421 32 96 28.6421 96 24.5V7.5C96 3.35786 92.6421 0 88.5 0Z" fill="url(#paint0_radial_531_24055)"/>
<path d="M88.5 0H71.5C67.3579 0 64 3.35786 64 7.5V24.5C64 28.6421 67.3579 32 71.5 32H88.5C92.6421 32 96 28.6421 96 24.5V7.5C96 3.35786 92.6421 0 88.5 0Z" fill="url(#paint1_radial_531_24055)"/>
<path d="M80.0011 3.5C76.6064 3.5 76.1803 3.51488 74.847 3.5755C73.5163 3.6365 72.6079 3.84712 71.8131 4.15625C70.9909 4.4755 70.2935 4.90262 69.5988 5.59762C68.9034 6.2925 68.4763 6.98987 68.156 7.81175C67.846 8.60675 67.6351 9.5155 67.5752 10.8456C67.5156 12.179 67.5 12.6053 67.5 16.0001C67.5 19.395 67.515 19.8197 67.5755 21.153C67.6368 22.4837 67.8474 23.3921 68.1562 24.1869C68.4757 25.0091 68.9029 25.7065 69.5979 26.4012C70.2925 27.0966 70.9899 27.5247 71.8115 27.844C72.6069 28.1531 73.5154 28.3637 74.8459 28.4247C76.1792 28.4854 76.605 28.5002 79.9996 28.5002C83.3948 28.5002 83.8195 28.4854 85.1528 28.4247C86.4835 28.3637 87.3929 28.1531 88.1882 27.844C89.0101 27.5247 89.7065 27.0966 90.401 26.4012C91.0964 25.7065 91.5234 25.0091 91.8438 24.1872C92.151 23.3921 92.362 22.4835 92.4245 21.1532C92.4844 19.82 92.5 19.395 92.5 16.0001C92.5 12.6053 92.4844 12.1792 92.4245 10.8459C92.362 9.51512 92.151 8.60687 91.8438 7.81212C91.5234 6.98988 91.0964 6.2925 90.401 5.59762C89.7057 4.90237 89.0104 4.47525 88.1875 4.15637C87.3906 3.84712 86.4817 3.63637 85.151 3.5755C83.8176 3.51488 83.3931 3.5 79.9972 3.5H80.0011ZM78.8798 5.75262C79.2126 5.75212 79.584 5.75262 80.0011 5.75262C83.3388 5.75262 83.7342 5.76462 85.0522 5.8245C86.271 5.88025 86.9325 6.08387 87.3731 6.255C87.9565 6.4815 88.3724 6.75237 88.8096 7.19C89.2471 7.6275 89.5179 8.04412 89.745 8.6275C89.9161 9.0675 90.12 9.729 90.1755 10.9477C90.2354 12.2655 90.2484 12.6612 90.2484 15.9972C90.2484 19.3332 90.2354 19.7291 90.1755 21.0467C90.1198 22.2655 89.9161 22.927 89.745 23.3671C89.5185 23.9505 89.2471 24.3659 88.8096 24.8031C88.3721 25.2406 87.9568 25.5114 87.3731 25.738C86.933 25.9099 86.271 26.113 85.0522 26.1687C83.7345 26.2286 83.3388 26.2416 80.0011 26.2416C76.6634 26.2416 76.2677 26.2286 74.9501 26.1687C73.7314 26.1125 73.0699 25.9089 72.6289 25.7377C72.0456 25.5111 71.6289 25.2404 71.1914 24.8029C70.7539 24.3654 70.4831 23.9497 70.256 23.3661C70.0849 22.926 69.881 22.2645 69.8255 21.0457C69.7656 19.728 69.7536 19.3322 69.7536 15.9941C69.7536 12.656 69.7656 12.2624 69.8255 10.9446C69.8812 9.72587 70.0849 9.06437 70.256 8.62375C70.4826 8.04037 70.7539 7.62375 71.1915 7.18625C71.6291 6.74875 72.0456 6.47787 72.629 6.25087C73.0696 6.079 73.7314 5.87587 74.9501 5.81987C76.1032 5.76775 76.5501 5.75212 78.8798 5.7495V5.75262ZM86.6736 7.82812C85.8455 7.82812 85.1736 8.49937 85.1736 9.32762C85.1736 10.1557 85.8455 10.8276 86.6736 10.8276C87.5018 10.8276 88.1736 10.1557 88.1736 9.32762C88.1736 8.4995 87.5018 7.82762 86.6736 7.82762V7.82812ZM80.0011 9.58075C76.4561 9.58075 73.5819 12.455 73.5819 16.0001C73.5819 19.5452 76.4561 22.4181 80.0011 22.4181C83.5462 22.4181 86.4195 19.5452 86.4195 16.0001C86.4195 12.4551 83.546 9.58075 80.0009 9.58075H80.0011ZM80.0011 11.8334C82.3022 11.8334 84.1679 13.6988 84.1679 16.0001C84.1679 18.3013 82.3022 20.1669 80.0011 20.1669C77.7 20.1669 75.8345 18.3013 75.8345 16.0001C75.8345 13.6988 77.6999 11.8334 80.0011 11.8334Z" fill="white"/>
</g>
<path d="M132 2C129.794 2 128 3.79375 128 6V26C128 28.2062 129.794 30 132 30H152C154.206 30 156 28.2062 156 26V6C156 3.79375 154.206 2 152 2H132ZM150.569 7.25L144.081 14.6625L151.712 24.75H145.737L141.062 18.6313L135.706 24.75H132.738L139.675 16.8188L132.356 7.25H138.481L142.712 12.8438L147.6 7.25H150.569ZM148.206 22.975L137.587 8.93125H135.819L146.556 22.975H148.2H148.206Z" fill="black"/>
<defs>
<radialGradient id="paint0_radial_531_24055" cx="0" cy="0" r="1" gradientUnits="userSpaceOnUse" gradientTransform="translate(72.5 34.4646) rotate(-90) scale(31.7144 29.4969)">
<stop stop-color="#FFDD55"/>
<stop offset="0.1" stop-color="#FFDD55"/>
<stop offset="0.5" stop-color="#FF543E"/>
<stop offset="1" stop-color="#C837AB"/>
</radialGradient>
<radialGradient id="paint1_radial_531_24055" cx="0" cy="0" r="1" gradientUnits="userSpaceOnUse" gradientTransform="translate(58.6399 2.30512) rotate(78.681) scale(14.1765 58.436)">
<stop stop-color="#3771C8"/>
<stop offset="0.128" stop-color="#3771C8"/>
<stop offset="1" stop-color="#6600FF" stop-opacity="0"/>
</radialGradient>
<clipPath id="clip0_531_24055">
<rect width="32" height="32" fill="white"/>
</clipPath>
<clipPath id="clip1_531_24055">
<rect width="32" height="32" fill="white" transform="translate(64)"/>
</clipPath>
</defs>
</svg>
