<svg width="20" height="20" viewBox="0 0 20 20" fill="none" xmlns="http://www.w3.org/2000/svg">
<path d="M18.3167 9.51C18.0334 4.67667 13.6417 0.951677 8.58341 1.78501C5.10008 2.36001 2.30841 5.18499 1.76675 8.66833C1.45008 10.685 1.86677 12.5933 2.7751 14.1683L2.03342 16.9267C1.86675 17.5517 2.44174 18.1183 3.0584 17.9433L5.77508 17.1933C7.00841 17.9183 8.45008 18.335 9.99174 18.335C14.6917 18.335 18.5917 14.1933 18.3167 9.51ZM14.0668 13.1017C13.9918 13.2517 13.9001 13.3933 13.7834 13.5267C13.5751 13.7517 13.3501 13.9183 13.1001 14.0183C12.8501 14.1267 12.5751 14.1767 12.2834 14.1767C11.8584 14.1767 11.4001 14.0767 10.9251 13.8683C10.4417 13.66 9.96676 13.385 9.49176 13.0433C9.00843 12.6933 8.55842 12.3017 8.12508 11.8767C7.69175 11.4433 7.3084 10.985 6.9584 10.51C6.61673 10.035 6.34175 9.55999 6.14175 9.08499C5.94175 8.60999 5.84176 8.15167 5.84176 7.71834C5.84176 7.43501 5.89175 7.16001 5.99175 6.91001C6.09175 6.65167 6.2501 6.41834 6.4751 6.21001C6.74177 5.94334 7.03342 5.81834 7.34175 5.81834C7.45842 5.81834 7.57506 5.84334 7.68339 5.89334C7.79173 5.94334 7.89175 6.01834 7.96675 6.12667L8.93339 7.49332C9.00839 7.60166 9.06674 7.69333 9.10007 7.785C9.14174 7.87666 9.15841 7.95999 9.15841 8.04333C9.15841 8.14333 9.12509 8.24334 9.06676 8.34334C9.00842 8.44334 8.9334 8.54333 8.8334 8.64333L8.51673 8.97666C8.46673 9.02666 8.4501 9.07667 8.4501 9.14333C8.4501 9.17667 8.4584 9.21 8.46673 9.24333C8.4834 9.27666 8.49176 9.30167 8.5001 9.32667C8.5751 9.46833 8.7084 9.64332 8.89174 9.85999C9.0834 10.0767 9.28344 10.3017 9.50011 10.5183C9.72511 10.7433 9.94176 10.9433 10.1668 11.135C10.3834 11.3183 10.5667 11.4433 10.7084 11.5183C10.7334 11.5267 10.7584 11.5433 10.7834 11.5517C10.8168 11.5683 10.8501 11.5683 10.8918 11.5683C10.9668 11.5683 11.0168 11.5433 11.0668 11.4933L11.3834 11.1767C11.4917 11.0683 11.5918 10.9933 11.6834 10.9433C11.7834 10.885 11.8751 10.8517 11.9834 10.8517C12.0668 10.8517 12.1501 10.8683 12.2418 10.91C12.3334 10.9517 12.4334 11.0017 12.5334 11.0767L13.9168 12.06C14.0251 12.135 14.1001 12.2267 14.1501 12.3267C14.1917 12.435 14.2167 12.535 14.2167 12.6517C14.1667 12.7933 14.1334 12.9517 14.0668 13.1017Z" fill="#00B664"/>
</svg>
