<svg width="20" height="20" viewBox="0 0 20 20" fill="none" xmlns="http://www.w3.org/2000/svg">
<path d="M14.1665 2.91797H5.83317C3.33317 2.91797 1.6665 4.16797 1.6665 7.08464V12.918C1.6665 15.8346 3.33317 17.0846 5.83317 17.0846H14.1665C16.6665 17.0846 18.3332 15.8346 18.3332 12.918V7.08464C18.3332 4.16797 16.6665 2.91797 14.1665 2.91797ZM14.5582 7.99297L11.9498 10.0763C11.3998 10.518 10.6998 10.7346 9.99984 10.7346C9.29984 10.7346 8.5915 10.518 8.04984 10.0763L5.4415 7.99297C5.17484 7.7763 5.13317 7.3763 5.3415 7.10964C5.55817 6.84297 5.94984 6.79297 6.2165 7.00964L8.82484 9.09297C9.45817 9.6013 10.5332 9.6013 11.1665 9.09297L13.7748 7.00964C14.0415 6.79297 14.4415 6.83464 14.6498 7.10964C14.8665 7.3763 14.8248 7.7763 14.5582 7.99297Z" fill="#305E82"/>
</svg>
