<svg width="20" height="20" viewBox="0 0 20 20" fill="none" xmlns="http://www.w3.org/2000/svg">
<path d="M14.1665 2.02344H5.83317C3.33317 2.02344 1.6665 3.6901 1.6665 6.1901V11.1901C1.6665 13.6901 3.33317 15.3568 5.83317 15.3568V17.1318C5.83317 17.7984 6.57484 18.1984 7.12484 17.8234L10.8332 15.3568H14.1665C16.6665 15.3568 18.3332 13.6901 18.3332 11.1901V6.1901C18.3332 3.6901 16.6665 2.02344 14.1665 2.02344ZM9.99984 12.1651C9.64984 12.1651 9.37484 11.8818 9.37484 11.5401C9.37484 11.1984 9.64984 10.9151 9.99984 10.9151C10.3498 10.9151 10.6248 11.1984 10.6248 11.5401C10.6248 11.8818 10.3498 12.1651 9.99984 12.1651ZM11.0498 8.70677C10.7248 8.92344 10.6248 9.0651 10.6248 9.29844V9.47344C10.6248 9.8151 10.3415 10.0984 9.99984 10.0984C9.65817 10.0984 9.37484 9.8151 9.37484 9.47344V9.29844C9.37484 8.33177 10.0832 7.85677 10.3498 7.67344C10.6582 7.4651 10.7582 7.32344 10.7582 7.10677C10.7582 6.6901 10.4165 6.34844 9.99984 6.34844C9.58317 6.34844 9.2415 6.6901 9.2415 7.10677C9.2415 7.44844 8.95817 7.73177 8.6165 7.73177C8.27484 7.73177 7.9915 7.44844 7.9915 7.10677C7.9915 5.99844 8.8915 5.09844 9.99984 5.09844C11.1082 5.09844 12.0082 5.99844 12.0082 7.10677C12.0082 8.05677 11.3082 8.53177 11.0498 8.70677Z" fill="#801FFF"/>
</svg>
