<svg width="20" height="20" viewBox="0 0 20 20" fill="none" xmlns="http://www.w3.org/2000/svg">
<path d="M10.8346 18.9596H4.16797C2.1513 18.9596 1.04297 17.8513 1.04297 15.8346V9.16797C1.04297 7.1513 2.1513 6.04297 4.16797 6.04297H8.33464C8.6763 6.04297 8.95964 6.3263 8.95964 6.66797V15.8346C8.95964 17.1513 9.51797 17.7096 10.8346 17.7096C11.1763 17.7096 11.4596 17.993 11.4596 18.3346C11.4596 18.6763 11.1763 18.9596 10.8346 18.9596ZM4.16797 7.29297C2.8513 7.29297 2.29297 7.8513 2.29297 9.16797V15.8346C2.29297 17.1513 2.8513 17.7096 4.16797 17.7096H8.16796C7.86796 17.218 7.70964 16.593 7.70964 15.8346V7.29297H4.16797Z" fill="#807E7E"/>
<path d="M8.33464 7.29036H4.16797C3.8263 7.29036 3.54297 7.00703 3.54297 6.66536V4.9987C3.54297 3.73203 4.56797 2.70703 5.83464 2.70703H8.42629C8.61796 2.70703 8.80131 2.79868 8.91798 2.94868C9.03465 3.10701 9.07629 3.30703 9.02629 3.49037C8.97629 3.6737 8.95964 3.88203 8.95964 4.16536V6.66536C8.95964 7.00703 8.6763 7.29036 8.33464 7.29036ZM4.79297 6.04036H7.70964V4.16536C7.70964 4.09036 7.70964 4.0237 7.70964 3.95703H5.83464C5.25964 3.95703 4.79297 4.4237 4.79297 4.9987V6.04036Z" fill="#807E7E"/>
<path d="M11.668 11.4596C11.3263 11.4596 11.043 11.1763 11.043 10.8346V6.66797C11.043 6.3263 11.3263 6.04297 11.668 6.04297C12.0096 6.04297 12.293 6.3263 12.293 6.66797V10.8346C12.293 11.1763 12.0096 11.4596 11.668 11.4596Z" fill="#807E7E"/>
<path d="M15 11.4596C14.6583 11.4596 14.375 11.1763 14.375 10.8346V6.66797C14.375 6.3263 14.6583 6.04297 15 6.04297C15.3417 6.04297 15.625 6.3263 15.625 6.66797V10.8346C15.625 11.1763 15.3417 11.4596 15 11.4596Z" fill="#807E7E"/>
<path d="M15.0013 18.9596H11.668C11.3263 18.9596 11.043 18.6763 11.043 18.3346V15.0013C11.043 14.2013 11.7013 13.543 12.5013 13.543H14.168C14.968 13.543 15.6263 14.2013 15.6263 15.0013V18.3346C15.6263 18.6763 15.343 18.9596 15.0013 18.9596ZM12.293 17.7096H14.3763V15.0013C14.3763 14.8846 14.2846 14.793 14.168 14.793H12.5013C12.3846 14.793 12.293 14.8846 12.293 15.0013V17.7096Z" fill="#807E7E"/>
<path d="M5 14.7904C4.65833 14.7904 4.375 14.507 4.375 14.1654V10.832C4.375 10.4904 4.65833 10.207 5 10.207C5.34167 10.207 5.625 10.4904 5.625 10.832V14.1654C5.625 14.507 5.34167 14.7904 5 14.7904Z" fill="#807E7E"/>
<path d="M15.832 18.9596H10.832C8.81536 18.9596 7.70703 17.8513 7.70703 15.8346V4.16797C7.70703 2.1513 8.81536 1.04297 10.832 1.04297H15.832C17.8487 1.04297 18.957 2.1513 18.957 4.16797V15.8346C18.957 17.8513 17.8487 18.9596 15.832 18.9596ZM10.832 2.29297C9.51536 2.29297 8.95703 2.8513 8.95703 4.16797V15.8346C8.95703 17.1513 9.51536 17.7096 10.832 17.7096H15.832C17.1487 17.7096 17.707 17.1513 17.707 15.8346V4.16797C17.707 2.8513 17.1487 2.29297 15.832 2.29297H10.832Z" fill="#807E7E"/>
</svg>
