<svg width="20" height="20" viewBox="0 0 20 20" fill="none" xmlns="http://www.w3.org/2000/svg">
<path d="M14.7181 18.8932C14.2764 18.8932 13.7097 18.7516 13.0014 18.3349L10.5097 16.8599C10.2514 16.7099 9.7514 16.7099 9.5014 16.8599L7.0014 18.3349C5.5264 19.2099 4.65973 18.8599 4.26807 18.5766C3.88473 18.2932 3.28473 17.5682 3.6764 15.9016L4.26807 13.3432C4.33473 13.0766 4.2014 12.6182 4.0014 12.4182L1.93473 10.3516C0.9014 9.31823 0.984734 8.4349 1.1264 8.00156C1.26807 7.56823 1.71807 6.80156 3.1514 6.5599L5.80973 6.11823C6.05973 6.07656 6.41807 5.8099 6.5264 5.5849L8.0014 2.64323C8.66807 1.30156 9.54307 1.10156 10.0014 1.10156C10.4597 1.10156 11.3347 1.30156 12.0014 2.64323L13.4681 5.57656C13.5847 5.80156 13.9431 6.06823 14.1931 6.1099L16.8514 6.55156C18.2931 6.79323 18.7431 7.5599 18.8764 7.99323C19.0097 8.42656 19.0931 9.3099 18.0681 10.3432L16.0014 12.4182C15.8014 12.6182 15.6764 13.0682 15.7347 13.3432L16.3264 15.9016C16.7097 17.5682 16.1181 18.2932 15.7347 18.5766C15.5264 18.7266 15.1931 18.8932 14.7181 18.8932ZM10.0014 15.4932C10.4097 15.4932 10.8181 15.5932 11.1431 15.7849L13.6347 17.2599C14.3597 17.6932 14.8181 17.6932 14.9931 17.5682C15.1681 17.4432 15.2931 17.0016 15.1097 16.1849L14.5181 13.6266C14.3597 12.9349 14.6181 12.0432 15.1181 11.5349L17.1847 9.46823C17.5931 9.0599 17.7764 8.6599 17.6931 8.3849C17.6014 8.1099 17.2181 7.8849 16.6514 7.79323L13.9931 7.35156C13.3514 7.24323 12.6514 6.72656 12.3597 6.14323L10.8931 3.2099C10.6264 2.67656 10.2931 2.3599 10.0014 2.3599C9.70973 2.3599 9.3764 2.67656 9.11807 3.2099L7.64307 6.14323C7.3514 6.72656 6.6514 7.24323 6.00973 7.35156L3.35973 7.79323C2.79307 7.8849 2.40973 8.1099 2.31807 8.3849C2.2264 8.6599 2.41807 9.06823 2.8264 9.46823L4.89307 11.5349C5.39307 12.0349 5.6514 12.9349 5.49307 13.6266L4.9014 16.1849C4.70973 17.0099 4.84307 17.4432 5.01807 17.5682C5.19307 17.6932 5.64307 17.6849 6.3764 17.2599L8.86807 15.7849C9.18473 15.5932 9.59307 15.4932 10.0014 15.4932Z" fill="#FFAE00"/>
</svg>
