<svg width="20" height="20" viewBox="0 0 20 20" fill="none" xmlns="http://www.w3.org/2000/svg">
<path d="M9.99844 11.8089C8.22344 11.8089 6.77344 10.3672 6.77344 8.58385C6.77344 6.80052 8.22344 5.36719 9.99844 5.36719C11.7734 5.36719 13.2234 6.80885 13.2234 8.59219C13.2234 10.3755 11.7734 11.8089 9.99844 11.8089ZM9.99844 6.61719C8.9151 6.61719 8.02344 7.50052 8.02344 8.59219C8.02344 9.68385 8.90677 10.5672 9.99844 10.5672C11.0901 10.5672 11.9734 9.68385 11.9734 8.59219C11.9734 7.50052 11.0818 6.61719 9.99844 6.61719Z" fill="#807E7E"/>
<path d="M10.0014 18.968C8.76803 18.968 7.52637 18.5013 6.5597 17.5763C4.10137 15.2096 1.3847 11.4346 2.4097 6.94297C3.3347 2.86797 6.89303 1.04297 10.0014 1.04297C10.0014 1.04297 10.0014 1.04297 10.0097 1.04297C13.118 1.04297 16.6764 2.86797 17.6014 6.9513C18.618 11.443 15.9014 15.2096 13.443 17.5763C12.4764 18.5013 11.2347 18.968 10.0014 18.968ZM10.0014 2.29297C7.57637 2.29297 4.4597 3.58464 3.6347 7.21797C2.7347 11.143 5.20137 14.5263 7.4347 16.668C8.87637 18.0596 11.1347 18.0596 12.5764 16.668C14.8014 14.5263 17.268 11.143 16.3847 7.21797C15.5514 3.58464 12.4264 2.29297 10.0014 2.29297Z" fill="#807E7E"/>
</svg>
