<svg width="60" height="60" viewBox="0 0 60 60" fill="none" xmlns="http://www.w3.org/2000/svg">
<path d="M44.1542 56.6797C42.8292 56.6797 41.1292 56.2547 39.0042 55.0047L31.5292 50.5797C30.7542 50.1297 29.2542 50.1297 28.5042 50.5797L21.0042 55.0047C16.5792 57.6297 13.9792 56.5797 12.8042 55.7297C11.6542 54.8797 9.8542 52.7047 11.0292 47.7047L12.8042 40.0297C13.0042 39.2297 12.6042 37.8547 12.0042 37.2547L5.8042 31.0547C2.7042 27.9547 2.9542 25.3047 3.3792 24.0047C3.8042 22.7047 5.1542 20.4047 9.4542 19.6797L17.4292 18.3547C18.1792 18.2297 19.2542 17.4297 19.5792 16.7547L24.0042 7.92969C26.0042 3.90469 28.6292 3.30469 30.0042 3.30469C31.3792 3.30469 34.0042 3.90469 36.0042 7.92969L40.4042 16.7297C40.7542 17.4047 41.8292 18.2047 42.5792 18.3297L50.5542 19.6547C54.8792 20.3797 56.2292 22.6797 56.6292 23.9797C57.0292 25.2797 57.2792 27.9297 54.2042 31.0297L48.0042 37.2547C47.4042 37.8547 47.0292 39.2047 47.2042 40.0297L48.9792 47.7047C50.1292 52.7047 48.3542 54.8797 47.2042 55.7297C46.5792 56.1797 45.5792 56.6797 44.1542 56.6797ZM30.0042 46.4797C31.2292 46.4797 32.4542 46.7797 33.4292 47.3547L40.9042 51.7797C43.0792 53.0797 44.4542 53.0797 44.9792 52.7047C45.5042 52.3297 45.8792 51.0047 45.3292 48.5547L43.5542 40.8797C43.0792 38.8047 43.8542 36.1297 45.3542 34.6047L51.5542 28.4047C52.7792 27.1797 53.3292 25.9797 53.0792 25.1547C52.8042 24.3297 51.6542 23.6547 49.9542 23.3797L41.9792 22.0547C40.0542 21.7297 37.9542 20.1797 37.0792 18.4297L32.6792 9.62969C31.8792 8.02969 30.8792 7.07969 30.0042 7.07969C29.1292 7.07969 28.1292 8.02969 27.3542 9.62969L22.9292 18.4297C22.0542 20.1797 19.9542 21.7297 18.0292 22.0547L10.0792 23.3797C8.3792 23.6547 7.2292 24.3297 6.9542 25.1547C6.6792 25.9797 7.2542 27.2047 8.4792 28.4047L14.6792 34.6047C16.1792 36.1047 16.9542 38.8047 16.4792 40.8797L14.7042 48.5547C14.1292 51.0297 14.5292 52.3297 15.0542 52.7047C15.5792 53.0797 16.9292 53.0547 19.1292 51.7797L26.6042 47.3547C27.5542 46.7797 28.7792 46.4797 30.0042 46.4797Z" fill="#FFAE00"/>
</svg>
