<svg width="48" height="48" viewBox="0 0 48 48" fill="none" xmlns="http://www.w3.org/2000/svg">
<path d="M24.0078 45.4961C12.1478 45.4961 2.50781 35.8561 2.50781 23.9961C2.50781 12.1361 12.1478 2.49609 24.0078 2.49609C35.8678 2.49609 45.5078 12.1361 45.5078 23.9961C45.5078 35.8561 35.8678 45.4961 24.0078 45.4961ZM24.0078 5.49609C13.8078 5.49609 5.50781 13.7961 5.50781 23.9961C5.50781 34.1961 13.8078 42.4961 24.0078 42.4961C34.2078 42.4961 42.5078 34.1961 42.5078 23.9961C42.5078 13.7961 34.2078 5.49609 24.0078 5.49609Z" fill="#A00000"/>
<path d="M24 27.4961C23.18 27.4961 22.5 26.8161 22.5 25.9961V15.9961C22.5 15.1761 23.18 14.4961 24 14.4961C24.82 14.4961 25.5 15.1761 25.5 15.9961V25.9961C25.5 26.8161 24.82 27.4961 24 27.4961Z" fill="#A00000"/>
<path d="M24.0078 34.0017C23.7478 34.0017 23.4878 33.9417 23.2478 33.8417C23.0078 33.7417 22.7878 33.6017 22.5878 33.4217C22.4078 33.2217 22.2678 33.0217 22.1678 32.7617C22.0678 32.5217 22.0078 32.2617 22.0078 32.0017C22.0078 31.7417 22.0678 31.4817 22.1678 31.2417C22.2678 31.0017 22.4078 30.7817 22.5878 30.5817C22.7878 30.4017 23.0078 30.2617 23.2478 30.1617C23.7278 29.9617 24.2878 29.9617 24.7678 30.1617C25.0078 30.2617 25.2278 30.4017 25.4278 30.5817C25.6078 30.7817 25.7478 31.0017 25.8478 31.2417C25.9478 31.4817 26.0078 31.7417 26.0078 32.0017C26.0078 32.2617 25.9478 32.5217 25.8478 32.7617C25.7478 33.0217 25.6078 33.2217 25.4278 33.4217C25.2278 33.6017 25.0078 33.7417 24.7678 33.8417C24.5278 33.9417 24.2678 34.0017 24.0078 34.0017Z" fill="#A00000"/>
</svg>
