<svg width="20" height="20" viewBox="0 0 20 20" fill="none" xmlns="http://www.w3.org/2000/svg">
<path d="M1.66797 8.1263C1.3263 8.1263 1.04297 7.84297 1.04297 7.5013V5.41797C1.04297 3.00964 3.00964 1.04297 5.41797 1.04297H7.5013C7.84297 1.04297 8.1263 1.3263 8.1263 1.66797C8.1263 2.00964 7.84297 2.29297 7.5013 2.29297H5.41797C3.69297 2.29297 2.29297 3.69297 2.29297 5.41797V7.5013C2.29297 7.84297 2.00964 8.1263 1.66797 8.1263Z" fill="#121212"/>
<path d="M18.3333 8.1263C17.9917 8.1263 17.7083 7.84297 17.7083 7.5013V5.41797C17.7083 3.69297 16.3083 2.29297 14.5833 2.29297H12.5C12.1583 2.29297 11.875 2.00964 11.875 1.66797C11.875 1.3263 12.1583 1.04297 12.5 1.04297H14.5833C16.9917 1.04297 18.9583 3.00964 18.9583 5.41797V7.5013C18.9583 7.84297 18.675 8.1263 18.3333 8.1263Z" fill="#121212"/>
<path d="M14.582 18.957H13.332C12.9904 18.957 12.707 18.6737 12.707 18.332C12.707 17.9904 12.9904 17.707 13.332 17.707H14.582C16.307 17.707 17.707 16.307 17.707 14.582V13.332C17.707 12.9904 17.9904 12.707 18.332 12.707C18.6737 12.707 18.957 12.9904 18.957 13.332V14.582C18.957 16.9904 16.9904 18.957 14.582 18.957Z" fill="#121212"/>
<path d="M7.5013 18.9583H5.41797C3.00964 18.9583 1.04297 16.9917 1.04297 14.5833V12.5C1.04297 12.1583 1.3263 11.875 1.66797 11.875C2.00964 11.875 2.29297 12.1583 2.29297 12.5V14.5833C2.29297 16.3083 3.69297 17.7083 5.41797 17.7083H7.5013C7.84297 17.7083 8.1263 17.9917 8.1263 18.3333C8.1263 18.675 7.84297 18.9583 7.5013 18.9583Z" fill="#121212"/>
</svg>
