<svg width="20" height="20" viewBox="0 0 20 20" fill="none" xmlns="http://www.w3.org/2000/svg">
<path d="M14.8927 18.225C14.6344 18.225 14.376 18.1584 14.1427 18.0167L10.801 16.0334C10.451 16.025 10.101 16.0001 9.76771 15.9501C9.54271 15.9167 9.35104 15.7667 9.2677 15.55C9.18437 15.3334 9.22604 15.1 9.37604 14.925C9.92604 14.2834 10.2094 13.5167 10.2094 12.7C10.2094 10.6834 8.43437 9.04169 6.25104 9.04169C5.43437 9.04169 4.65103 9.26672 3.9927 9.70005C3.80937 9.81672 3.58437 9.83338 3.38437 9.74171C3.1927 9.65004 3.05104 9.46669 3.02604 9.25002C3.00104 9.01669 2.98438 8.78337 2.98438 8.54171C2.98438 4.40837 6.56771 1.05005 10.9677 1.05005C15.3677 1.05005 18.951 4.40837 18.951 8.54171C18.951 10.8084 17.901 12.8917 16.051 14.3167L16.3344 16.5834C16.401 17.1501 16.151 17.6834 15.676 17.9917C15.4427 18.1417 15.1677 18.225 14.8927 18.225ZM10.9594 14.775C11.076 14.7667 11.1927 14.8001 11.2927 14.8667L14.7844 16.9417C14.876 17.0001 14.951 16.9751 15.001 16.9417C15.0427 16.9167 15.1094 16.8501 15.0927 16.7334L14.7677 14.1C14.7427 13.8667 14.8427 13.6417 15.026 13.5084C16.726 12.3167 17.701 10.5 17.701 8.52502C17.701 5.08336 14.6844 2.28337 10.9677 2.28337C7.39271 2.28337 4.45937 4.8834 4.2427 8.15006C4.8677 7.9084 5.54271 7.77505 6.24271 7.77505C9.11771 7.77505 11.451 9.97502 11.451 12.6833C11.4594 13.4167 11.2844 14.125 10.9594 14.775Z" fill="#305E82"/>
<path d="M3.81745 18.9584C3.60079 18.9584 3.39245 18.9001 3.20078 18.7751C2.82578 18.5334 2.62579 18.1168 2.67579 17.6751L2.84246 16.3917C1.71746 15.4751 1.05078 14.1167 1.05078 12.6917C1.05078 11.0667 1.90079 9.55009 3.32579 8.64175C4.18412 8.08342 5.20078 7.78345 6.25911 7.78345C9.13412 7.78345 11.4674 9.98341 11.4674 12.6917C11.4674 13.7917 11.0674 14.8751 10.3341 15.7334C9.39245 16.8751 7.98412 17.5417 6.43412 17.5917L4.40078 18.8001C4.21745 18.9084 4.01745 18.9584 3.81745 18.9584ZM6.25079 9.03345C5.43412 9.03345 4.65078 9.25843 3.99245 9.69176C2.92578 10.3751 2.29245 11.4917 2.29245 12.6917C2.29245 13.8501 2.85912 14.9084 3.85912 15.5918C4.05079 15.7251 4.15078 15.9501 4.12578 16.1834L3.94245 17.6084L5.93412 16.4251C6.03412 16.3668 6.14245 16.3334 6.25079 16.3334C7.47579 16.3334 8.63412 15.8084 9.36746 14.9168C9.91746 14.2668 10.2091 13.5001 10.2091 12.6834C10.2091 10.6751 8.43412 9.03345 6.25079 9.03345Z" fill="#305E82"/>
</svg>
