<svg width="16" height="16" viewBox="0 0 16 16" fill="none" xmlns="http://www.w3.org/2000/svg">
<path d="M4.83992 12.5932C4.78658 12.5932 4.73325 12.5865 4.67992 12.5798C4.27992 12.5265 3.93992 12.2732 3.77325 11.9132L2.93325 10.0665C1.59991 9.07982 0.833252 7.60651 0.833252 6.00651C0.833252 3.15984 3.29992 0.839844 6.33325 0.839844C8.47325 0.839844 10.4266 2.01317 11.3133 3.83317C11.6533 4.5065 11.8333 5.23984 11.8333 6.00651C11.8333 8.77984 9.49325 11.0532 6.57325 11.1665L5.73326 12.1799C5.50659 12.4399 5.17991 12.5932 4.83992 12.5932ZM6.33325 1.83317C3.85325 1.83317 1.83325 3.69984 1.83325 5.99984C1.83325 7.31317 2.48658 8.5265 3.61991 9.3265C3.69325 9.37983 3.75325 9.44649 3.78658 9.52649L4.67992 11.4932C4.71325 11.5665 4.77992 11.5865 4.81325 11.5865C4.84659 11.5932 4.91325 11.5865 4.95992 11.5332L5.94658 10.3465C6.03992 10.2332 6.17992 10.1665 6.33325 10.1665C8.81325 10.1665 10.8333 8.29984 10.8333 5.99984C10.8333 5.39317 10.6933 4.81315 10.4199 4.27315C9.69992 2.78649 8.09325 1.83317 6.33325 1.83317Z" fill="#305E82"/>
<path d="M11.16 15.1661C10.8133 15.1661 10.4933 15.0128 10.2666 14.7461L9.42664 13.7394C7.81331 13.6727 6.2933 12.9327 5.31997 11.7327C5.16664 11.5461 5.17331 11.2794 5.32664 11.0994L5.94664 10.3528C6.03997 10.2394 6.17997 10.1728 6.33331 10.1728C8.81331 10.1728 10.8333 8.30609 10.8333 6.00609C10.8333 5.39943 10.6933 4.81941 10.42 4.27941C10.3333 4.10608 10.3533 3.89942 10.4733 3.74608C10.5933 3.59275 10.7933 3.52607 10.98 3.56607C13.4466 4.13274 15.1666 6.19275 15.1666 8.57942C15.1666 10.1794 14.4 11.6528 13.0666 12.6394L12.2266 14.4861C12.0533 14.8594 11.7133 15.1127 11.3066 15.1594C11.26 15.1661 11.2066 15.1661 11.16 15.1661ZM6.3733 11.3994C7.20664 12.2461 8.40664 12.7394 9.66664 12.7394C9.81331 12.7394 9.95331 12.8061 10.0533 12.9194L11.04 14.1061C11.0866 14.1661 11.1466 14.1728 11.1866 14.1661C11.2133 14.1661 11.2866 14.1461 11.3266 14.0661L12.22 12.0994C12.26 12.0194 12.3133 11.9461 12.3866 11.8994C13.52 11.0994 14.1733 9.88608 14.1733 8.57275C14.1733 6.97274 13.1933 5.55277 11.7 4.85277C11.7933 5.22611 11.84 5.60609 11.84 5.99942C11.84 8.77275 9.49997 11.0461 6.57997 11.1594L6.3733 11.3994Z" fill="#305E82"/>
<path d="M8.00008 6.5H4.66675C4.39341 6.5 4.16675 6.27333 4.16675 6C4.16675 5.72667 4.39341 5.5 4.66675 5.5H8.00008C8.27341 5.5 8.50008 5.72667 8.50008 6C8.50008 6.27333 8.27341 6.5 8.00008 6.5Z" fill="#305E82"/>
</svg>
