<svg width="16" height="16" viewBox="0 0 16 16" fill="none" xmlns="http://www.w3.org/2000/svg">
<path d="M7.22668 9.02745H6.22668C5.46001 9.02745 4.84001 8.38745 4.84001 7.59412C4.84001 7.32078 5.06668 7.09412 5.34001 7.09412C5.61334 7.09412 5.84001 7.32078 5.84001 7.59412C5.84001 7.83412 6.01334 8.02745 6.22668 8.02745H7.22668C7.38001 8.02745 7.50001 7.88745 7.50001 7.71411C7.50001 7.48078 7.46001 7.46745 7.30668 7.41411L5.70001 6.85411C5.12001 6.65411 4.83334 6.24745 4.83334 5.61411C4.83334 4.89411 5.40668 4.30078 6.10668 4.30078H7.10668C7.87334 4.30078 8.49334 4.94078 8.49334 5.73412C8.49334 6.00745 8.26668 6.23412 7.99334 6.23412C7.72001 6.23412 7.49334 6.00745 7.49334 5.73412C7.49334 5.49411 7.32001 5.30078 7.10668 5.30078H6.10668C5.95334 5.30078 5.83334 5.44078 5.83334 5.61411C5.83334 5.84745 5.87334 5.86078 6.02668 5.91411L7.63334 6.47411C8.21334 6.68078 8.49334 7.08745 8.49334 7.71411C8.50001 8.44078 7.92668 9.02745 7.22668 9.02745Z" fill="#305E82"/>
<path d="M6.66666 9.55974C6.39332 9.55974 6.16666 9.33307 6.16666 9.05974V8.56641C6.16666 8.29307 6.39332 8.06641 6.66666 8.06641C6.93999 8.06641 7.16666 8.29307 7.16666 8.56641V9.05974C7.16666 9.33974 6.93999 9.55974 6.66666 9.55974Z" fill="#305E82"/>
<path d="M6.66666 5.29344C6.39332 5.29344 6.16666 5.06677 6.16666 4.79344V4.27344C6.16666 4.0001 6.39332 3.77344 6.66666 3.77344C6.93999 3.77344 7.16666 4.0001 7.16666 4.27344V4.79344C7.16666 5.06677 6.93999 5.29344 6.66666 5.29344Z" fill="#305E82"/>
<path d="M6.66001 12.4815C3.44668 12.4815 0.833344 9.86812 0.833344 6.65479C0.833344 3.44146 3.44668 0.828125 6.66001 0.828125C9.87334 0.828125 12.4867 3.44146 12.4867 6.65479C12.4867 9.86812 9.86668 12.4815 6.66001 12.4815ZM6.66001 1.83479C4.00001 1.83479 1.83334 4.00146 1.83334 6.66146C1.83334 9.32146 4.00001 11.4815 6.66001 11.4815C9.32001 11.4815 11.4867 9.31479 11.4867 6.65479C11.4867 3.99479 9.32001 1.83479 6.66001 1.83479Z" fill="#305E82"/>
<path d="M11.3467 15.1469C10.1133 15.1469 8.95333 14.5469 8.24 13.5335C8.08 13.3069 8.13333 12.9935 8.36 12.8335C8.58666 12.6735 8.9 12.7269 9.06 12.9535C9.58666 13.7002 10.44 14.1402 11.3467 14.1402C12.8933 14.1402 14.1467 12.8869 14.1467 11.3402C14.1467 10.4402 13.7067 9.58686 12.9733 9.06019C12.7467 8.90019 12.7 8.58685 12.86 8.36019C13.02 8.13352 13.3333 8.08685 13.56 8.24685C14.5533 8.96019 15.1467 10.1135 15.1467 11.3402C15.1467 13.4469 13.4467 15.1469 11.3467 15.1469Z" fill="#305E82"/>
</svg>
