<svg width="16" height="16" viewBox="0 0 16 16" fill="none" xmlns="http://www.w3.org/2000/svg">
<path d="M12.0015 5.27318C11.9815 5.27318 11.9682 5.27318 11.9482 5.27318H11.9148C10.6548 5.23318 9.71484 4.25985 9.71484 3.05984C9.71484 1.83318 10.7148 0.839844 11.9348 0.839844C13.1548 0.839844 14.1548 1.83984 14.1548 3.05984C14.1482 4.26651 13.2082 5.23985 12.0082 5.27985C12.0082 5.27318 12.0082 5.27318 12.0015 5.27318ZM11.9348 1.83318C11.2615 1.83318 10.7148 2.37985 10.7148 3.05318C10.7148 3.71318 11.2282 4.24652 11.8882 4.27318C11.8948 4.26652 11.9482 4.26652 12.0082 4.27318C12.6548 4.23985 13.1548 3.70652 13.1615 3.05318C13.1615 2.37985 12.6148 1.83318 11.9348 1.83318Z" fill="#305E82"/>
<path d="M12.007 10.1871C11.747 10.1871 11.487 10.1671 11.227 10.1204C10.9537 10.0738 10.7737 9.81376 10.8203 9.54042C10.867 9.26709 11.127 9.08709 11.4003 9.13376C12.2203 9.27376 13.087 9.12043 13.667 8.73376C13.9803 8.5271 14.147 8.26709 14.147 8.00709C14.147 7.74709 13.9737 7.49375 13.667 7.28709C13.087 6.90042 12.207 6.74709 11.3803 6.89376C11.107 6.94709 10.847 6.76042 10.8003 6.48709C10.7537 6.21376 10.9337 5.95376 11.207 5.90709C12.2937 5.71376 13.4203 5.92042 14.2203 6.45375C14.807 6.84709 15.147 7.40709 15.147 8.00709C15.147 8.60042 14.8137 9.1671 14.2203 9.5671C13.6137 9.9671 12.827 10.1871 12.007 10.1871Z" fill="#305E82"/>
<path d="M3.98031 5.27203C3.97365 5.27203 3.96698 5.27203 3.96698 5.27203C2.76698 5.23203 1.82698 4.2587 1.82031 3.0587C1.82031 1.83203 2.82031 0.832031 4.04031 0.832031C5.26031 0.832031 6.26031 1.83203 6.26031 3.05203C6.26031 4.2587 5.32031 5.23203 4.12031 5.27203L3.98031 4.77203L4.02698 5.27203C4.01365 5.27203 3.99365 5.27203 3.98031 5.27203ZM4.04698 4.27203C4.08698 4.27203 4.12031 4.27203 4.16031 4.2787C4.75365 4.25203 5.27365 3.7187 5.27365 3.0587C5.27365 2.38536 4.72698 1.83869 4.05365 1.83869C3.38031 1.83869 2.83365 2.38536 2.83365 3.0587C2.83365 3.71203 3.34031 4.2387 3.98698 4.2787C3.99365 4.27203 4.02031 4.27203 4.04698 4.27203Z" fill="#305E82"/>
<path d="M3.97203 10.1871C3.15203 10.1871 2.36536 9.9671 1.7587 9.5671C1.17203 9.17376 0.832031 8.60709 0.832031 8.00709C0.832031 7.41376 1.17203 6.84709 1.7587 6.45375C2.5587 5.92042 3.68536 5.71376 4.77203 5.90709C5.04536 5.95376 5.22537 6.21376 5.1787 6.48709C5.13203 6.76042 4.87203 6.94709 4.5987 6.89376C3.77203 6.74709 2.8987 6.90042 2.31203 7.28709C1.9987 7.49375 1.83203 7.74709 1.83203 8.00709C1.83203 8.26709 2.00537 8.5271 2.31203 8.73376C2.89203 9.12043 3.7587 9.27376 4.5787 9.13376C4.85203 9.08709 5.11203 9.27376 5.1587 9.54042C5.20537 9.81376 5.02537 10.0738 4.75203 10.1204C4.49203 10.1671 4.23203 10.1871 3.97203 10.1871Z" fill="#305E82"/>
<path d="M8.00151 10.2537C7.98151 10.2537 7.96818 10.2537 7.94818 10.2537H7.91484C6.65484 10.2137 5.71484 9.24031 5.71484 8.04031C5.71484 6.81365 6.71484 5.82031 7.93484 5.82031C9.15484 5.82031 10.1548 6.82031 10.1548 8.04031C10.1482 9.24698 9.20818 10.2203 8.00818 10.2603C8.00818 10.2536 8.00818 10.2537 8.00151 10.2537ZM7.93484 6.81365C7.26151 6.81365 6.71484 7.36032 6.71484 8.03365C6.71484 8.69365 7.22818 9.22699 7.88818 9.25365C7.89485 9.24699 7.94818 9.24699 8.00818 9.25365C8.65484 9.22032 9.15485 8.68698 9.16151 8.03365C9.16151 7.36698 8.61485 6.81365 7.93484 6.81365Z" fill="#305E82"/>
<path d="M7.99823 15.1725C7.19823 15.1725 6.39823 14.9658 5.77823 14.5458C5.19156 14.1525 4.85156 13.5925 4.85156 12.9925C4.85156 12.3992 5.1849 11.8258 5.77823 11.4325C7.0249 10.6058 8.97823 10.6058 10.2182 11.4325C10.8049 11.8258 11.1449 12.3858 11.1449 12.9858C11.1449 13.5792 10.8116 14.1525 10.2182 14.5458C9.59823 14.9592 8.79823 15.1725 7.99823 15.1725ZM6.33156 12.2725C6.01823 12.4792 5.85156 12.7392 5.85156 12.9992C5.85156 13.2592 6.0249 13.5125 6.33156 13.7192C7.23156 14.3258 8.75823 14.3258 9.65823 13.7192C9.97156 13.5125 10.1382 13.2525 10.1382 12.9925C10.1382 12.7325 9.9649 12.4792 9.65823 12.2725C8.7649 11.6658 7.23823 11.6725 6.33156 12.2725Z" fill="#305E82"/>
</svg>
