<svg width="16" height="16" viewBox="0 0 16 16" fill="none" xmlns="http://www.w3.org/2000/svg">
<path d="M8 12.5C7.72667 12.5 7.5 12.2733 7.5 12V10C7.5 9.72667 7.72667 9.5 8 9.5C8.27333 9.5 8.5 9.72667 8.5 10V12C8.5 12.2733 8.27333 12.5 8 12.5Z" fill="#305E82"/>
<path d="M11.7333 15.0392H4.26664C3.05331 15.0392 1.94664 14.1059 1.74664 12.9126L0.859974 7.59923C0.713307 6.77256 1.11997 5.71256 1.77997 5.1859L6.39997 1.4859C7.29331 0.765897 8.69997 0.772564 9.59997 1.49256L14.22 5.1859C14.8733 5.71256 15.2733 6.77256 15.14 7.59923L14.2533 12.9059C14.0533 14.0859 12.92 15.0392 11.7333 15.0392ZM7.99331 1.95256C7.63997 1.95256 7.28664 2.05923 7.02664 2.2659L2.40664 5.97256C2.03331 6.27256 1.76664 6.9659 1.84664 7.43923L2.73331 12.7459C2.85331 13.4459 3.55331 14.0392 4.26664 14.0392H11.7333C12.4466 14.0392 13.1466 13.4459 13.2666 12.7392L14.1533 7.43256C14.2266 6.9659 13.96 6.25923 13.5933 5.9659L8.97331 2.27256C8.70664 2.05923 8.34664 1.95256 7.99331 1.95256Z" fill="#305E82"/>
</svg>
