<svg width="16" height="16" viewBox="0 0 16 16" fill="none" xmlns="http://www.w3.org/2000/svg">
<path d="M8.93344 11.6134H7.2601C6.16677 11.6134 5.2801 10.6934 5.2801 9.56005C5.2801 9.28672 5.50677 9.06005 5.7801 9.06005C6.05344 9.06005 6.2801 9.28672 6.2801 9.56005C6.2801 10.1401 6.7201 10.6134 7.2601 10.6134H8.93344C9.36677 10.6134 9.72677 10.2267 9.72677 9.76005C9.72677 9.18005 9.5201 9.06672 9.1801 8.94672L6.49344 8.00005C5.97344 7.82005 5.27344 7.43339 5.27344 6.24005C5.27344 5.21339 6.0801 4.38672 7.06677 4.38672H8.7401C9.83344 4.38672 10.7201 5.30672 10.7201 6.44005C10.7201 6.71339 10.4934 6.94005 10.2201 6.94005C9.94677 6.94005 9.7201 6.71339 9.7201 6.44005C9.7201 5.86005 9.2801 5.38672 8.7401 5.38672H7.06677C6.63344 5.38672 6.27344 5.77339 6.27344 6.24005C6.27344 6.82005 6.4801 6.93339 6.8201 7.05339L9.50677 8.00005C10.0268 8.18005 10.7268 8.56672 10.7268 9.76005C10.7201 10.7801 9.9201 11.6134 8.93344 11.6134Z" fill="#305E82"/>
<path d="M8 12.5C7.72667 12.5 7.5 12.2733 7.5 12V4C7.5 3.72667 7.72667 3.5 8 3.5C8.27333 3.5 8.5 3.72667 8.5 4V12C8.5 12.2733 8.27333 12.5 8 12.5Z" fill="#305E82"/>
<path d="M9.99992 15.1654H5.99992C2.37992 15.1654 0.833252 13.6187 0.833252 9.9987V5.9987C0.833252 2.3787 2.37992 0.832031 5.99992 0.832031H9.99992C13.6199 0.832031 15.1666 2.3787 15.1666 5.9987V9.9987C15.1666 13.6187 13.6199 15.1654 9.99992 15.1654ZM5.99992 1.83203C2.92658 1.83203 1.83325 2.92536 1.83325 5.9987V9.9987C1.83325 13.072 2.92658 14.1654 5.99992 14.1654H9.99992C13.0733 14.1654 14.1666 13.072 14.1666 9.9987V5.9987C14.1666 2.92536 13.0733 1.83203 9.99992 1.83203H5.99992Z" fill="#305E82"/>
</svg>
