<svg width="12" height="12" viewBox="0 0 12 12" fill="none" xmlns="http://www.w3.org/2000/svg">
<path d="M7.14415 4.14946L2.94415 8.27446C2.83896 8.37781 2.69739 8.43571 2.54993 8.43571C2.40246 8.43571 2.2609 8.37781 2.15571 8.27446L0.355708 6.5068C0.302984 6.45503 0.260973 6.39339 0.232074 6.32538C0.203175 6.25738 0.187954 6.18434 0.187279 6.11046C0.185917 5.96123 0.243889 5.81758 0.348442 5.7111C0.400212 5.65838 0.461859 5.61636 0.529864 5.58747C0.59787 5.55857 0.670901 5.54335 0.744789 5.54267C0.894012 5.54131 1.03766 5.59928 1.14415 5.70383L2.5504 7.08477L6.35618 3.34696C6.46259 3.24241 6.60619 3.18441 6.75537 3.18573C6.90455 3.18705 7.04709 3.24757 7.15165 3.35399C7.2562 3.46041 7.31419 3.604 7.31288 3.75318C7.31156 3.90236 7.25103 4.04491 7.14461 4.14946H7.14415ZM11.6512 3.35258C11.5994 3.29968 11.5377 3.25752 11.4695 3.22853C11.4014 3.19953 11.3282 3.18427 11.2542 3.18362C11.1802 3.18296 11.1067 3.19693 11.0381 3.22472C10.9695 3.25251 10.907 3.29357 10.8543 3.34555L7.04993 7.08477L6.68055 6.72196C6.57413 6.61741 6.43054 6.55941 6.28136 6.56073C6.13218 6.56205 5.98964 6.62257 5.88508 6.72899C5.78053 6.83541 5.72253 6.979 5.72385 7.12818C5.72517 7.27736 5.7857 7.41991 5.89211 7.52446L6.65571 8.27446C6.7609 8.37781 6.90246 8.43571 7.04993 8.43571C7.19739 8.43571 7.33896 8.37781 7.44414 8.27446L11.6441 4.14946C11.6968 4.09769 11.7388 4.03605 11.7677 3.96805C11.7966 3.90006 11.8118 3.82705 11.8124 3.75318C11.8131 3.67931 11.7992 3.60604 11.7715 3.53755C11.7438 3.46906 11.7029 3.40668 11.6512 3.35399V3.35258Z" fill="white"/>
</svg>
