<svg width="20" height="20" viewBox="0 0 20 20" fill="none" xmlns="http://www.w3.org/2000/svg">
<path d="M15.8333 8.95964H14.1666C12.15 8.95964 11.0416 7.8513 11.0416 5.83464V4.16797C11.0416 2.1513 12.15 1.04297 14.1666 1.04297H15.8333C17.85 1.04297 18.9583 2.1513 18.9583 4.16797V5.83464C18.9583 7.8513 17.85 8.95964 15.8333 8.95964ZM14.1666 2.29297C12.85 2.29297 12.2916 2.8513 12.2916 4.16797V5.83464C12.2916 7.1513 12.85 7.70964 14.1666 7.70964H15.8333C17.15 7.70964 17.7083 7.1513 17.7083 5.83464V4.16797C17.7083 2.8513 17.15 2.29297 15.8333 2.29297H14.1666Z" fill="white"/>
<path d="M5.83329 18.9596H4.16663C2.14996 18.9596 1.04163 17.8513 1.04163 15.8346V14.168C1.04163 12.1513 2.14996 11.043 4.16663 11.043H5.83329C7.84996 11.043 8.95829 12.1513 8.95829 14.168V15.8346C8.95829 17.8513 7.84996 18.9596 5.83329 18.9596ZM4.16663 12.293C2.84996 12.293 2.29163 12.8513 2.29163 14.168V15.8346C2.29163 17.1513 2.84996 17.7096 4.16663 17.7096H5.83329C7.14996 17.7096 7.70829 17.1513 7.70829 15.8346V14.168C7.70829 12.8513 7.14996 12.293 5.83329 12.293H4.16663Z" fill="white"/>
<path d="M4.99996 8.95964C2.81663 8.95964 1.04163 7.18464 1.04163 5.0013C1.04163 2.81797 2.81663 1.04297 4.99996 1.04297C7.18329 1.04297 8.95829 2.81797 8.95829 5.0013C8.95829 7.18464 7.18329 8.95964 4.99996 8.95964ZM4.99996 2.29297C3.50829 2.29297 2.29163 3.50964 2.29163 5.0013C2.29163 6.49297 3.50829 7.70964 4.99996 7.70964C6.49163 7.70964 7.70829 6.49297 7.70829 5.0013C7.70829 3.50964 6.49163 2.29297 4.99996 2.29297Z" fill="white"/>
<path d="M15 18.9596C12.8166 18.9596 11.0416 17.1846 11.0416 15.0013C11.0416 12.818 12.8166 11.043 15 11.043C17.1833 11.043 18.9583 12.818 18.9583 15.0013C18.9583 17.1846 17.1833 18.9596 15 18.9596ZM15 12.293C13.5083 12.293 12.2916 13.5096 12.2916 15.0013C12.2916 16.493 13.5083 17.7096 15 17.7096C16.4916 17.7096 17.7083 16.493 17.7083 15.0013C17.7083 13.5096 16.4916 12.293 15 12.293Z" fill="white"/>
</svg>
