<svg width="20" height="20" viewBox="0 0 20 20" fill="none" xmlns="http://www.w3.org/2000/svg">
<path d="M10 18.8596C9.4417 18.8596 8.87503 18.7346 8.43337 18.4763L3.85003 15.8346C1.98337 14.5763 1.8667 14.3846 1.8667 12.4096V7.59297C1.8667 5.61797 1.97503 5.4263 3.80837 4.18464L8.42503 1.51797C9.30003 1.00964 10.675 1.00964 11.55 1.51797L16.15 4.16797C18.0167 5.4263 18.1334 5.61797 18.1334 7.59297V12.4013C18.1334 14.3763 18.025 14.568 16.1917 15.8096L11.575 18.4763C11.125 18.7346 10.5584 18.8596 10 18.8596ZM10 2.39297C9.65003 2.39297 9.30837 2.45964 9.0667 2.6013L4.48337 5.2513C3.12503 6.16797 3.12503 6.16797 3.12503 7.59297V12.4013C3.12503 13.8263 3.12503 13.8263 4.5167 14.768L9.0667 17.393C9.55837 17.6763 10.45 17.6763 10.9417 17.393L15.525 14.743C16.875 13.8263 16.875 13.8263 16.875 12.4013V7.59297C16.875 6.16797 16.875 6.16797 15.4834 5.2263L10.9334 2.6013C10.6917 2.45964 10.35 2.39297 10 2.39297Z" fill="white"/>
<path d="M10 13.125C8.275 13.125 6.875 11.725 6.875 10C6.875 8.275 8.275 6.875 10 6.875C11.725 6.875 13.125 8.275 13.125 10C13.125 11.725 11.725 13.125 10 13.125ZM10 8.125C8.96667 8.125 8.125 8.96667 8.125 10C8.125 11.0333 8.96667 11.875 10 11.875C11.0333 11.875 11.875 11.0333 11.875 10C11.875 8.96667 11.0333 8.125 10 8.125Z" fill="white"/>
</svg>
