<svg width="20" height="20" viewBox="0 0 20 20" fill="none" xmlns="http://www.w3.org/2000/svg">
<path d="M18.3333 18.957H1.66663C1.32496 18.957 1.04163 18.6737 1.04163 18.332C1.04163 17.9904 1.32496 17.707 1.66663 17.707H18.3333C18.675 17.707 18.9583 17.9904 18.9583 18.332C18.9583 18.6737 18.675 18.957 18.3333 18.957Z" fill="white"/>
<path d="M3.0835 18.3323H1.8335L1.87516 8.30728C1.87516 7.59895 2.20016 6.94064 2.7585 6.5073L8.59183 1.96563C9.41683 1.32396 10.5752 1.32396 11.4085 1.96563L17.2418 6.49896C17.7918 6.93229 18.1252 7.60728 18.1252 8.30728V18.3323H16.8752V8.31562C16.8752 7.99895 16.7252 7.69063 16.4752 7.49063L10.6418 2.95729C10.2668 2.66563 9.74183 2.66563 9.35849 2.95729L3.52516 7.49897C3.27516 7.69064 3.12516 7.99895 3.12516 8.31562L3.0835 18.3323Z" fill="white"/>
<path d="M12.0833 18.9596H7.91663C7.57496 18.9596 7.29163 18.6763 7.29163 18.3346V15.418C7.29163 14.3846 8.13329 13.543 9.16663 13.543H10.8333C11.8666 13.543 12.7083 14.3846 12.7083 15.418V18.3346C12.7083 18.6763 12.425 18.9596 12.0833 18.9596ZM8.54163 17.7096H11.4583V15.418C11.4583 15.0763 11.175 14.793 10.8333 14.793H9.16663C8.82496 14.793 8.54163 15.0763 8.54163 15.418V17.7096Z" fill="white"/>
<path d="M7.91663 12.0846H6.24996C5.44996 12.0846 4.79163 11.4263 4.79163 10.6263V9.3763C4.79163 8.5763 5.44996 7.91797 6.24996 7.91797H7.91663C8.71663 7.91797 9.37496 8.5763 9.37496 9.3763V10.6263C9.37496 11.4263 8.71663 12.0846 7.91663 12.0846ZM6.24996 9.16797C6.13329 9.16797 6.04163 9.25964 6.04163 9.3763V10.6263C6.04163 10.743 6.13329 10.8346 6.24996 10.8346H7.91663C8.03329 10.8346 8.12496 10.743 8.12496 10.6263V9.3763C8.12496 9.25964 8.03329 9.16797 7.91663 9.16797H6.24996Z" fill="white"/>
<path d="M13.75 12.0846H12.0833C11.2833 12.0846 10.625 11.4263 10.625 10.6263V9.3763C10.625 8.5763 11.2833 7.91797 12.0833 7.91797H13.75C14.55 7.91797 15.2083 8.5763 15.2083 9.3763V10.6263C15.2083 11.4263 14.55 12.0846 13.75 12.0846ZM12.0833 9.16797C11.9667 9.16797 11.875 9.25964 11.875 9.3763V10.6263C11.875 10.743 11.9667 10.8346 12.0833 10.8346H13.75C13.8667 10.8346 13.9583 10.743 13.9583 10.6263V9.3763C13.9583 9.25964 13.8667 9.16797 13.75 9.16797H12.0833Z" fill="white"/>
<path d="M15.8334 6.45703C15.4917 6.45703 15.2084 6.18204 15.2084 5.84037L15.1917 3.95703H12.15C11.8084 3.95703 11.525 3.6737 11.525 3.33203C11.525 2.99036 11.8084 2.70703 12.15 2.70703H15.8167C16.1584 2.70703 16.4417 2.98202 16.4417 3.32369L16.4667 5.82369C16.4584 6.17369 16.1834 6.45703 15.8334 6.45703C15.8417 6.45703 15.8334 6.45703 15.8334 6.45703Z" fill="white"/>
</svg>
