<svg width="20" height="20" viewBox="0 0 20 20" fill="none" xmlns="http://www.w3.org/2000/svg">
<path d="M12.5002 18.9573H7.50016C6.40016 18.9573 5.4835 18.849 4.7085 18.6157C4.42516 18.5323 4.24183 18.2573 4.2585 17.9656C4.46683 15.474 6.99183 13.5156 10.0002 13.5156C13.0085 13.5156 15.5252 15.4656 15.7418 17.9656C15.7668 18.2656 15.5835 18.5323 15.2918 18.6157C14.5168 18.849 13.6002 18.9573 12.5002 18.9573ZM5.60016 17.549C6.15016 17.6573 6.77516 17.7073 7.50016 17.7073H12.5002C13.2252 17.7073 13.8502 17.6573 14.4002 17.549C13.9585 15.949 12.1335 14.7656 10.0002 14.7656C7.86683 14.7656 6.04183 15.949 5.60016 17.549Z" fill="white"/>
<path d="M12.5 1.66797H7.49996C3.33329 1.66797 1.66663 3.33464 1.66663 7.5013V12.5013C1.66663 15.6513 2.61663 17.3763 4.88329 18.018C5.06663 15.8513 7.29163 14.1429 9.99996 14.1429C12.7083 14.1429 14.9333 15.8513 15.1166 18.018C17.3833 17.3763 18.3333 15.6513 18.3333 12.5013V7.5013C18.3333 3.33464 16.6666 1.66797 12.5 1.66797ZM9.99996 11.8096C8.34996 11.8096 7.01662 10.468 7.01662 8.81798C7.01662 7.16798 8.34996 5.83464 9.99996 5.83464C11.65 5.83464 12.9833 7.16798 12.9833 8.81798C12.9833 10.468 11.65 11.8096 9.99996 11.8096Z" stroke="white" stroke-width="1.5" stroke-linecap="round" stroke-linejoin="round"/>
<path d="M9.99994 12.432C8.00827 12.432 6.3916 10.807 6.3916 8.81538C6.3916 6.82371 8.00827 5.20703 9.99994 5.20703C11.9916 5.20703 13.6083 6.82371 13.6083 8.81538C13.6083 10.807 11.9916 12.432 9.99994 12.432ZM9.99994 6.45703C8.69994 6.45703 7.6416 7.51538 7.6416 8.81538C7.6416 10.1237 8.69994 11.182 9.99994 11.182C11.2999 11.182 12.3583 10.1237 12.3583 8.81538C12.3583 7.51538 11.2999 6.45703 9.99994 6.45703Z" fill="white"/>
</svg>
