<svg width="20" height="20" viewBox="0 0 20 20" fill="none" xmlns="http://www.w3.org/2000/svg">
<path d="M2.5 10.8346V6.66797H17.5V10.8346C17.5 13.9771 17.5 15.5488 16.5233 16.5246C15.5467 17.5005 13.9758 17.5013 10.8333 17.5013H9.16667C6.02417 17.5013 4.4525 17.5013 3.47667 16.5246C2.50083 15.548 2.5 13.9771 2.5 10.8346Z" stroke="white" stroke-width="1.2" stroke-linecap="round" stroke-linejoin="round"/>
<path d="M2.5 6.66667L3.22083 5.06417C3.78083 3.82083 4.06 3.2 4.62667 2.85C5.19333 2.5 5.92083 2.5 7.375 2.5H12.625C14.0792 2.5 14.8058 2.5 15.3733 2.85C15.94 3.2 16.2192 3.82083 16.7792 5.06417L17.5 6.66667M10 6.66667V2.5" stroke="white" stroke-width="1.2" stroke-linecap="round"/>
<path d="M7.08329 11.2487H11.6666C12.1087 11.2487 12.5326 11.4243 12.8451 11.7369C13.1577 12.0494 13.3333 12.4733 13.3333 12.9154C13.3333 13.3574 13.1577 13.7813 12.8451 14.0939C12.5326 14.4064 12.1087 14.582 11.6666 14.582H10.8333M8.33329 9.58203L6.66663 11.2487L8.33329 12.9154" stroke="white" stroke-width="1.2" stroke-linecap="round" stroke-linejoin="round"/>
</svg>
