<svg width="24" height="24" viewBox="0 0 24 24" fill="none" xmlns="http://www.w3.org/2000/svg">
<path d="M17.44 15.3714C17.25 15.3714 17.06 15.3014 16.91 15.1514C16.62 14.8614 16.62 14.3814 16.91 14.0914L18.94 12.0614L16.91 10.0314C16.62 9.74141 16.62 9.26141 16.91 8.97141C17.2 8.68141 17.68 8.68141 17.97 8.97141L20.53 11.5314C20.82 11.8214 20.82 12.3014 20.53 12.5914L17.97 15.1514C17.82 15.3014 17.63 15.3714 17.44 15.3714Z" fill="white"/>
<path d="M19.93 12.8086H9.76001C9.35001 12.8086 9.01001 12.4686 9.01001 12.0586C9.01001 11.6486 9.35001 11.3086 9.76001 11.3086H19.93C20.34 11.3086 20.68 11.6486 20.68 12.0586C20.68 12.4686 20.34 12.8086 19.93 12.8086Z" fill="white"/>
<path d="M11.76 20.75C6.61001 20.75 3.01001 17.15 3.01001 12C3.01001 6.85 6.61001 3.25 11.76 3.25C12.17 3.25 12.51 3.59 12.51 4C12.51 4.41 12.17 4.75 11.76 4.75C7.49001 4.75 4.51001 7.73 4.51001 12C4.51001 16.27 7.49001 19.25 11.76 19.25C12.17 19.25 12.51 19.59 12.51 20C12.51 20.41 12.17 20.75 11.76 20.75Z" fill="white"/>
</svg>
