<svg width="20" height="20" viewBox="0 0 20 20" fill="none" xmlns="http://www.w3.org/2000/svg">
<path d="M6.04995 15.7425C5.98329 15.7425 5.91663 15.7341 5.84996 15.7258C5.34996 15.6591 4.92496 15.3424 4.71663 14.8924L3.66662 12.5841C1.99995 11.3508 1.04163 9.50911 1.04163 7.50911C1.04163 3.95078 4.12496 1.05078 7.91663 1.05078C10.5916 1.05078 13.0333 2.51744 14.1416 4.79244C14.5666 5.63411 14.7916 6.55078 14.7916 7.50911C14.7916 10.9758 11.8666 13.8174 8.21663 13.9591L7.16663 15.2258C6.8833 15.5508 6.47495 15.7425 6.04995 15.7425ZM7.91663 2.29244C4.81663 2.29244 2.29163 4.62577 2.29163 7.50077C2.29163 9.14244 3.10829 10.6591 4.52495 11.6591C4.61662 11.7258 4.69162 11.8091 4.73329 11.9091L5.84996 14.3674C5.89163 14.4591 5.97496 14.4841 6.01663 14.4841C6.05829 14.4924 6.14163 14.4841 6.19996 14.4174L7.43329 12.9341C7.54996 12.7925 7.72496 12.7091 7.91663 12.7091C11.0166 12.7091 13.5416 10.3758 13.5416 7.50077C13.5416 6.74244 13.3666 6.01742 13.025 5.34242C12.125 3.48408 10.1166 2.29244 7.91663 2.29244Z" fill="white"/>
<path d="M13.95 18.9596C13.5167 18.9596 13.1167 18.7679 12.8334 18.4346L11.7834 17.1762C9.76669 17.0929 7.86669 16.1679 6.65002 14.6679C6.45836 14.4345 6.4667 14.1012 6.65836 13.8763L7.43336 12.9429C7.55003 12.8013 7.72503 12.7179 7.91669 12.7179C11.0167 12.7179 13.5417 10.3846 13.5417 7.50957C13.5417 6.75124 13.3667 6.02622 13.025 5.35122C12.9167 5.13455 12.9417 4.87623 13.0917 4.68456C13.2417 4.49289 13.4917 4.40954 13.725 4.45954C16.8084 5.16788 18.9584 7.74289 18.9584 10.7262C18.9584 12.7262 18 14.5679 16.3334 15.8012L15.2834 18.1095C15.0667 18.5762 14.6417 18.8929 14.1334 18.9512C14.075 18.9596 14.0084 18.9596 13.95 18.9596ZM7.96669 14.2512C9.00836 15.3095 10.5084 15.9262 12.0834 15.9262C12.2667 15.9262 12.4417 16.0096 12.5667 16.1512L13.8 17.6345C13.8584 17.7095 13.9334 17.7179 13.9834 17.7096C14.0167 17.7096 14.1084 17.6845 14.1584 17.5845L15.275 15.1263C15.325 15.0262 15.3917 14.9345 15.4834 14.8762C16.9 13.8762 17.7167 12.3596 17.7167 10.7179C17.7167 8.71788 16.4917 6.94292 14.625 6.06792C14.7417 6.53459 14.8 7.00956 14.8 7.50123C14.8 10.9679 11.875 13.8096 8.22502 13.9512L7.96669 14.2512Z" fill="white"/>
<path d="M10 8.125H5.83337C5.49171 8.125 5.20837 7.84167 5.20837 7.5C5.20837 7.15833 5.49171 6.875 5.83337 6.875H10C10.3417 6.875 10.625 7.15833 10.625 7.5C10.625 7.84167 10.3417 8.125 10 8.125Z" fill="white"/>
</svg>
