<svg width="20" height="20" viewBox="0 0 20 20" fill="none" xmlns="http://www.w3.org/2000/svg">
<path d="M10.625 9.16797C10.625 9.00221 10.5592 8.84324 10.4419 8.72603C10.3247 8.60882 10.1658 8.54297 10 8.54297C9.83424 8.54297 9.67527 8.60882 9.55806 8.72603C9.44085 8.84324 9.375 9.00221 9.375 9.16797V11.043H7.5C7.33424 11.043 7.17527 11.1088 7.05806 11.226C6.94085 11.3432 6.875 11.5022 6.875 11.668C6.875 11.8337 6.94085 11.9927 7.05806 12.1099C7.17527 12.2271 7.33424 12.293 7.5 12.293H9.375V14.168C9.375 14.3337 9.44085 14.4927 9.55806 14.6099C9.67527 14.7271 9.83424 14.793 10 14.793C10.1658 14.793 10.3247 14.7271 10.4419 14.6099C10.5592 14.4927 10.625 14.3337 10.625 14.168V12.293H12.5C12.6658 12.293 12.8247 12.2271 12.9419 12.1099C13.0592 11.9927 13.125 11.8337 13.125 11.668C13.125 11.5022 13.0592 11.3432 12.9419 11.226C12.8247 11.1088 12.6658 11.043 12.5 11.043H10.625V9.16797Z" fill="white"/>
<path fill-rule="evenodd" clip-rule="evenodd" d="M9.99996 1.04297C9.40996 1.04297 8.87413 1.21214 8.29163 1.49464C7.72996 1.76797 7.07996 2.1713 6.26913 2.67464L4.54663 3.7438C3.77996 4.22047 3.16413 4.60214 2.69079 4.96464C2.19996 5.33964 1.82329 5.72297 1.55079 6.22047C1.27913 6.7163 1.15746 7.24464 1.09829 7.8688C1.04163 8.47297 1.04163 9.21297 1.04163 10.1405V11.4846C1.04163 13.0713 1.04163 14.3238 1.16913 15.303C1.29913 16.3071 1.57413 17.118 2.19413 17.7588C2.81663 18.403 3.60829 18.6913 4.58996 18.8271C5.53996 18.9596 6.75496 18.9596 8.28496 18.9596H11.715C13.245 18.9596 14.46 18.9596 15.41 18.8271C16.3908 18.6913 17.1833 18.403 17.8066 17.7588C18.4258 17.118 18.7008 16.3071 18.8316 15.303C18.9583 14.3238 18.9583 13.0713 18.9583 11.4846V10.1405C18.9583 9.21297 18.9583 8.4738 18.9016 7.8688C18.8433 7.2438 18.7208 6.7163 18.4491 6.22047C18.1766 5.72297 17.7991 5.34047 17.3091 4.96464C16.8358 4.6013 16.2208 4.22047 15.4533 3.7438L13.7308 2.67464C12.92 2.1713 12.27 1.76797 11.7075 1.49464C11.1266 1.2113 10.5908 1.04297 9.99996 1.04297ZM6.89996 3.75464C7.74579 3.22964 8.34163 2.8613 8.83913 2.6188C9.32329 2.38297 9.66663 2.29297 9.99996 2.29297C10.3333 2.29297 10.6766 2.38297 11.1608 2.6188C11.6591 2.86047 12.2541 3.22964 13.1 3.75464L14.7666 4.7888C15.5675 5.2863 16.13 5.63547 16.55 5.95714C16.9575 6.26964 17.1916 6.52713 17.3525 6.82047C17.5133 7.11463 17.6075 7.4588 17.6566 7.98547C17.7075 8.52547 17.7083 9.2063 17.7083 10.1713V11.4388C17.7083 13.0805 17.7066 14.2521 17.5916 15.1413C17.4783 16.0146 17.2641 16.5213 16.9083 16.8905C16.5541 17.2563 16.0725 17.4738 15.2383 17.5896C14.3833 17.708 13.2558 17.7096 11.6666 17.7096H8.33329C6.74329 17.7096 5.61663 17.708 4.76163 17.5896C3.92746 17.473 3.44579 17.2563 3.09246 16.8896C2.73579 16.5213 2.52163 16.0146 2.40913 15.1413C2.29246 14.2521 2.29163 13.0813 2.29163 11.4388V10.1713C2.29163 9.2063 2.29163 8.52547 2.34329 7.98547C2.39246 7.4588 2.48663 7.11463 2.64746 6.82047C2.80829 6.52713 3.04246 6.26964 3.45079 5.95714C3.86996 5.63547 4.43246 5.2863 5.23329 4.7888L6.89996 3.75464Z" fill="white"/>
</svg>
