<svg width="20" height="20" viewBox="0 0 20 20" fill="none" xmlns="http://www.w3.org/2000/svg">
<path d="M9.03329 11.2833H7.78329C6.82496 11.2833 6.04996 10.4833 6.04996 9.49167C6.04996 9.15 6.33329 8.86667 6.67496 8.86667C7.01663 8.86667 7.29996 9.15 7.29996 9.49167C7.29996 9.79167 7.51663 10.0333 7.78329 10.0333H9.03329C9.22496 10.0333 9.37496 9.85833 9.37496 9.64167C9.37496 9.35 9.32496 9.33333 9.13329 9.26667L7.12496 8.56667C6.39996 8.31667 6.04163 7.80833 6.04163 7.01667C6.04163 6.11667 6.75829 5.375 7.63329 5.375H8.88329C9.84163 5.375 10.6166 6.175 10.6166 7.16667C10.6166 7.50833 10.3333 7.79167 9.99163 7.79167C9.64996 7.79167 9.36663 7.50833 9.36663 7.16667C9.36663 6.86667 9.14996 6.625 8.88329 6.625H7.63329C7.44163 6.625 7.29163 6.8 7.29163 7.01667C7.29163 7.30833 7.34163 7.325 7.53329 7.39167L9.54163 8.09167C10.2666 8.35 10.6166 8.85833 10.6166 9.64167C10.625 10.55 9.90829 11.2833 9.03329 11.2833Z" fill="white"/>
<path d="M8.33337 11.9487C7.99171 11.9487 7.70837 11.6654 7.70837 11.3237V10.707C7.70837 10.3654 7.99171 10.082 8.33337 10.082C8.67504 10.082 8.95837 10.3654 8.95837 10.707V11.3237C8.95837 11.6737 8.67504 11.9487 8.33337 11.9487Z" fill="white"/>
<path d="M8.33337 6.61484C7.99171 6.61484 7.70837 6.33151 7.70837 5.98984V5.33984C7.70837 4.99818 7.99171 4.71484 8.33337 4.71484C8.67504 4.71484 8.95837 4.99818 8.95837 5.33984V5.98984C8.95837 6.33151 8.67504 6.61484 8.33337 6.61484Z" fill="white"/>
<path d="M8.32496 15.6018C4.30829 15.6018 1.04163 12.3352 1.04163 8.31849C1.04163 4.30182 4.30829 1.03516 8.32496 1.03516C12.3416 1.03516 15.6083 4.30182 15.6083 8.31849C15.6083 12.3352 12.3333 15.6018 8.32496 15.6018ZM8.32496 2.29349C4.99996 2.29349 2.29163 5.00182 2.29163 8.32682C2.29163 11.6518 4.99996 14.3518 8.32496 14.3518C11.65 14.3518 14.3583 11.6435 14.3583 8.31849C14.3583 4.99349 11.65 2.29349 8.32496 2.29349Z" fill="white"/>
<path d="M14.1833 18.9345C12.6416 18.9345 11.1916 18.1845 10.3 16.9179C10.1 16.6345 10.1666 16.2429 10.45 16.0429C10.7333 15.8429 11.125 15.9095 11.325 16.1929C11.9833 17.1262 13.05 17.6762 14.1833 17.6762C16.1166 17.6762 17.6833 16.1095 17.6833 14.1762C17.6833 13.0512 17.1333 11.9845 16.2166 11.3262C15.9333 11.1262 15.875 10.7345 16.075 10.4512C16.275 10.1679 16.6666 10.1095 16.95 10.3095C18.1916 11.2012 18.9333 12.6429 18.9333 14.1762C18.9333 16.8095 16.8083 18.9345 14.1833 18.9345Z" fill="white"/>
</svg>
