<svg width="20" height="20" viewBox="0 0 20 20" fill="none" xmlns="http://www.w3.org/2000/svg">
<path d="M10.0013 18.0404C9.74297 18.0404 9.49297 18.007 9.28464 17.932C6.1013 16.8404 1.04297 12.9654 1.04297 7.24036C1.04297 4.3237 3.4013 1.95703 6.3013 1.95703C7.70964 1.95703 9.0263 2.50703 10.0013 3.49036C10.9763 2.50703 12.293 1.95703 13.7013 1.95703C16.6013 1.95703 18.9596 4.33203 18.9596 7.24036C18.9596 12.9737 13.9013 16.8404 10.718 17.932C10.5096 18.007 10.2596 18.0404 10.0013 18.0404ZM6.3013 3.20703C4.09297 3.20703 2.29297 5.01536 2.29297 7.24036C2.29297 12.932 7.76797 16.0987 9.69297 16.757C9.84297 16.807 10.168 16.807 10.318 16.757C12.2346 16.0987 17.718 12.9404 17.718 7.24036C17.718 5.01536 15.918 3.20703 13.7096 3.20703C12.443 3.20703 11.268 3.7987 10.5096 4.8237C10.2763 5.14036 9.74297 5.14036 9.50963 4.8237C8.73463 3.79036 7.56797 3.20703 6.3013 3.20703Z" fill="white"/>
</svg>
