<svg width="20" height="20" viewBox="0 0 20 20" fill="none" xmlns="http://www.w3.org/2000/svg">
<path d="M9.58335 18.1263C4.87502 18.1263 1.04169 14.293 1.04169 9.58464C1.04169 4.8763 4.87502 1.04297 9.58335 1.04297C14.2917 1.04297 18.125 4.8763 18.125 9.58464C18.125 14.293 14.2917 18.1263 9.58335 18.1263ZM9.58335 2.29297C5.55835 2.29297 2.29169 5.56797 2.29169 9.58464C2.29169 13.6013 5.55835 16.8763 9.58335 16.8763C13.6084 16.8763 16.875 13.6013 16.875 9.58464C16.875 5.56797 13.6084 2.29297 9.58335 2.29297Z" fill="white"/>
<path d="M18.3333 18.9576C18.175 18.9576 18.0167 18.8992 17.8917 18.7742L16.225 17.1076C15.9833 16.8659 15.9833 16.4659 16.225 16.2242C16.4667 15.9826 16.8667 15.9826 17.1083 16.2242L18.775 17.8909C19.0167 18.1326 19.0167 18.5326 18.775 18.7742C18.65 18.8992 18.4917 18.9576 18.3333 18.9576Z" fill="white"/>
</svg>
