<svg width="20" height="20" viewBox="0 0 20 20" fill="none" xmlns="http://www.w3.org/2000/svg">
<path d="M18.3333 7.70703H1.66663C1.32496 7.70703 1.04163 7.4237 1.04163 7.08203C1.04163 6.74036 1.32496 6.45703 1.66663 6.45703H18.3333C18.675 6.45703 18.9583 6.74036 18.9583 7.08203C18.9583 7.4237 18.675 7.70703 18.3333 7.70703Z" fill="white"/>
<path d="M6.66667 14.375H5C4.65833 14.375 4.375 14.0917 4.375 13.75C4.375 13.4083 4.65833 13.125 5 13.125H6.66667C7.00833 13.125 7.29167 13.4083 7.29167 13.75C7.29167 14.0917 7.00833 14.375 6.66667 14.375Z" fill="white"/>
<path d="M12.0833 14.375H8.75C8.40833 14.375 8.125 14.0917 8.125 13.75C8.125 13.4083 8.40833 13.125 8.75 13.125H12.0833C12.425 13.125 12.7083 13.4083 12.7083 13.75C12.7083 14.0917 12.425 14.375 12.0833 14.375Z" fill="white"/>
<path d="M14.6333 17.7096H5.36663C2.04996 17.7096 1.04163 16.7096 1.04163 13.4263V6.5763C1.04163 3.29297 2.04996 2.29297 5.36663 2.29297H14.625C17.9416 2.29297 18.95 3.29297 18.95 6.5763V13.418C18.9583 16.7096 17.95 17.7096 14.6333 17.7096ZM5.36663 3.54297C2.74996 3.54297 2.29163 3.99297 2.29163 6.5763V13.418C2.29163 16.0013 2.74996 16.4513 5.36663 16.4513H14.625C17.2416 16.4513 17.7 16.0013 17.7 13.418V6.5763C17.7 3.99297 17.2416 3.54297 14.625 3.54297H5.36663Z" fill="white"/>
</svg>
