<svg width="20" height="20" viewBox="0 0 20 20" fill="none" xmlns="http://www.w3.org/2000/svg">
<path d="M13.3001 17.7656C13.1418 17.7656 12.9834 17.7073 12.8584 17.5823L11.5918 16.3156C11.3501 16.074 11.3501 15.674 11.5918 15.4323C11.8334 15.1906 12.2334 15.1906 12.4751 15.4323L13.3001 16.2573L15.3918 14.1656C15.6334 13.924 16.0334 13.924 16.2751 14.1656C16.5168 14.4073 16.5168 14.8073 16.2751 15.049L13.7418 17.5823C13.6168 17.7073 13.4584 17.7656 13.3001 17.7656Z" fill="white"/>
<path d="M10.1335 9.68464C10.1085 9.68464 10.0918 9.68464 10.0668 9.68464C10.0252 9.6763 9.96683 9.6763 9.91683 9.68464C7.50016 9.60964 5.67516 7.70964 5.67516 5.36797C5.66683 4.21797 6.11683 3.13464 6.9335 2.31797C7.75016 1.5013 8.8335 1.04297 9.99183 1.04297C12.3752 1.04297 14.3168 2.98464 14.3168 5.36797C14.3168 7.70964 12.4918 9.6013 10.1585 9.68464C10.1502 9.68464 10.1418 9.68464 10.1335 9.68464ZM9.99183 2.29297C9.16683 2.29297 8.40016 2.61797 7.81683 3.19297C7.24183 3.7763 6.92516 4.54297 6.92516 5.35964C6.92516 7.0263 8.22516 8.3763 9.8835 8.4263C9.9335 8.41797 10.0418 8.41797 10.1502 8.4263C11.7918 8.3513 13.0668 7.00963 13.0668 5.35964C13.0668 3.6763 11.6835 2.29297 9.99183 2.29297Z" fill="white"/>
<path d="M9.99184 18.801C8.29184 18.801 6.6835 18.3594 5.46684 17.5427C4.3085 16.7677 3.67517 15.7094 3.67517 14.5677C3.67517 13.426 4.31684 12.376 5.46684 11.6094C7.9585 9.94271 12.0085 9.94271 14.5002 11.6094C14.7835 11.801 14.8668 12.1927 14.6752 12.476C14.4835 12.7677 14.0918 12.8427 13.8085 12.651C11.7335 11.2677 8.2335 11.2677 6.1585 12.651C5.3585 13.1844 4.92517 13.8594 4.92517 14.5677C4.92517 15.276 5.3585 15.9677 6.1585 16.501C7.16684 17.176 8.52517 17.5427 9.9835 17.5427C10.3252 17.5427 10.6085 17.826 10.6085 18.1677C10.6085 18.5094 10.3335 18.801 9.99184 18.801Z" fill="white"/>
</svg>
