<svg width="495" height="338" viewBox="0 0 495 338" fill="none" xmlns="http://www.w3.org/2000/svg">
<g clip-path="url(#clip0_711_80389)">
<g clip-path="url(#clip1_711_80389)">
<circle opacity="0.2" cx="247.5" cy="168.75" r="168.75" fill="#FFE7CC"/>
<circle opacity="0.4" cx="247.5" cy="168.75" r="121.5" fill="#FFE7CC"/>
<rect x="131.039" y="221.836" width="1.58451" height="14.2606" rx="0.264085" fill="#FF8800"/>
<rect x="138.961" y="228.176" width="1.58451" height="14.2606" rx="0.264085" transform="rotate(90 138.961 228.176)" fill="#FF8800"/>
<rect x="338.789" y="264.609" width="1.23239" height="11.0915" rx="0.205399" fill="#FF8800"/>
<rect x="344.93" y="269.543" width="1.23239" height="11.0915" rx="0.205399" transform="rotate(90 344.93 269.543)" fill="#FF8800"/>
<rect x="368.719" y="58.6289" width="1.58451" height="14.2606" rx="0.264085" fill="#FF8800"/>
<rect x="376.641" y="64.9688" width="1.58451" height="14.2606" rx="0.264085" transform="rotate(90 376.641 64.9688)" fill="#FF8800"/>
<rect x="174.703" y="50.8945" width="1.40845" height="12.6761" rx="0.234742" fill="#FF8800"/>
<rect x="181.758" y="56.5312" width="1.40845" height="12.6761" rx="0.234742" transform="rotate(90 181.758 56.5312)" fill="#FF8800"/>
<circle cx="119.25" cy="81" r="8.625" stroke="#FF8800" stroke-width="0.75"/>
<circle cx="227.25" cy="283.5" r="8.625" stroke="#FF8800" stroke-width="0.75"/>
</g>
<path d="M249.75 247.5C293.242 247.5 328.5 212.242 328.5 168.75C328.5 125.258 293.242 90 249.75 90C206.258 90 171 125.258 171 168.75C171 212.242 206.258 247.5 249.75 247.5Z" fill="#FF8800"/>
<path d="M240.75 137.745V169.14C240.75 171.609 241.662 174.006 243.331 175.797C245.004 177.593 247.31 178.635 249.75 178.635C252.19 178.635 254.496 177.593 256.169 175.797C257.838 174.006 258.75 171.609 258.75 169.14V137.745C258.75 135.276 257.838 132.879 256.169 131.088C254.496 129.292 252.19 128.25 249.75 128.25C247.31 128.25 245.004 129.292 243.331 131.088C241.662 132.879 240.75 135.276 240.75 137.745Z" fill="white"/>
<path d="M259.143 206.146C260.359 204.193 261 201.912 261 199.59C261 196.481 259.851 193.469 257.76 191.226C255.665 188.976 252.787 187.68 249.75 187.68C247.488 187.68 245.291 188.401 243.439 189.73C241.588 191.057 240.169 192.926 239.336 195.083C238.504 197.24 238.288 199.605 238.711 201.885C239.133 204.165 240.18 206.28 241.74 207.954C243.302 209.631 245.311 210.792 247.524 211.265C249.739 211.738 252.033 211.493 254.108 210.571C256.181 209.649 257.927 208.1 259.143 206.146Z" fill="white"/>
</g>
<defs>
<clipPath id="clip0_711_80389">
<rect width="165" height="112.5" fill="white" transform="scale(3)"/>
</clipPath>
<clipPath id="clip1_711_80389">
<rect width="112.5" height="112.5" fill="white" transform="matrix(3 0 0 3 78.75 0)"/>
</clipPath>
</defs>
</svg>
