<svg width="20" height="20" viewBox="0 0 20 20" fill="none" xmlns="http://www.w3.org/2000/svg">
<path d="M7.4237 17.2253C7.26536 17.2253 7.10703 17.1669 6.98203 17.0419C6.74036 16.8003 6.74036 16.4003 6.98203 16.1586L12.4154 10.7253C12.8154 10.3253 12.8154 9.67526 12.4154 9.27526L6.98203 3.84193C6.74036 3.60026 6.74036 3.20026 6.98203 2.95859C7.2237 2.71693 7.6237 2.71693 7.86536 2.95859L13.2987 8.39193C13.7237 8.81693 13.9654 9.39193 13.9654 10.0003C13.9654 10.6086 13.732 11.1836 13.2987 11.6086L7.86536 17.0419C7.74036 17.1586 7.58203 17.2253 7.4237 17.2253Z" fill="#305E82"/>
</svg>
