<svg width="24" height="24" viewBox="0 0 24 24" fill="none" xmlns="http://www.w3.org/2000/svg">
<path d="M12.33 21.3394C11.24 21.3394 10.15 20.9294 9.32004 20.0994C7.66004 18.4394 7.66004 15.7494 9.32004 14.0894L11.8 11.6194C12.09 11.3294 12.57 11.3294 12.86 11.6194C13.15 11.9094 13.15 12.3894 12.86 12.6794L10.38 15.1494C9.31004 16.2194 9.31004 17.9694 10.38 19.0394C11.45 20.1094 13.2 20.1094 14.27 19.0394L18.16 15.1494C19.34 13.9694 19.99 12.3994 19.99 10.7294C19.99 9.05937 19.34 7.48937 18.16 6.30937C15.72 3.86937 11.76 3.86937 9.32004 6.30937L5.08004 10.5494C4.09004 11.5394 3.54004 12.8594 3.54004 14.2594C3.54004 15.6594 4.09004 16.9794 5.08004 17.9694C5.37004 18.2594 5.37004 18.7394 5.08004 19.0294C4.79004 19.3194 4.31004 19.3194 4.02004 19.0294C2.75004 17.7494 2.04004 16.0594 2.04004 14.2594C2.04004 12.4594 2.74004 10.7594 4.02004 9.48937L8.26004 5.24937C11.28 2.22937 16.2 2.22937 19.22 5.24937C20.68 6.70937 21.49 8.65937 21.49 10.7294C21.49 12.7994 20.68 14.7494 19.22 16.2094L15.33 20.0994C14.5 20.9294 13.42 21.3394 12.33 21.3394Z" fill="#305E82"/>
</svg>
