<svg width="80" height="80" viewBox="0 0 80 80" fill="none" xmlns="http://www.w3.org/2000/svg">
<path d="M55.5502 34.388C55.1601 33.5483 54.7039 32.7615 54.1882 32.0342C53.7783 31.4524 53.3287 30.9103 52.8329 30.4078L35.4378 12.8739C34.7634 12.2061 34.0825 11.6772 33.4081 11.2871C32.7337 10.8971 32.0527 10.6458 31.3783 10.5334L23.4378 9.36317L13.9833 7.97474C13.2229 7.88217 12.5552 7.98135 11.98 8.28548H11.9602C11.7089 8.43093 11.4775 8.60945 11.2659 8.82102C10.5651 9.52184 10.2147 10.5665 10.2147 11.9549V27.6706C10.2147 35.4326 12.1453 43.8028 16.013 52.7681C19.8808 61.74 25.0709 69.3498 31.5965 75.611C31.8874 75.8886 32.1783 76.1399 32.4626 76.3647C32.7535 76.5895 33.0709 76.7944 33.4081 76.9928C33.7453 77.1845 34.0626 77.3432 34.3535 77.4556C34.6378 77.568 34.9287 77.6473 35.2196 77.7068C39.5172 78.5399 43.2395 78.13 46.38 76.4572C48.013 75.5911 49.4808 74.3944 50.8031 72.8539C51.18 72.4176 51.537 71.9614 51.8676 71.492C55.0279 67.1415 56.6015 61.4623 56.6015 54.4541V38.7384C56.6015 37.3499 56.251 35.902 55.5502 34.388ZM44.7138 45.9251L43.9535 46.3549L32.5221 52.8805L32.3966 52.9533C31.8148 53.2838 31.1403 53.2243 30.3667 52.7813C29.5932 52.3318 28.9122 51.6111 28.337 50.6128L22.2477 40.0276C21.6659 39.0227 21.375 38.0706 21.375 37.1516C21.375 36.2326 21.6659 35.6177 22.2477 35.2871C22.8229 34.9566 23.5039 35.0094 24.2775 35.459C24.8791 35.8028 25.4213 36.3185 25.8973 36.9995C26.0428 37.1979 26.175 37.4028 26.3072 37.6276L30.3667 44.6293L39.0676 39.6706L40.5816 38.8045C41.0311 38.5466 41.5469 38.5268 42.1287 38.745H42.1353C42.3006 38.8045 42.4725 38.8904 42.651 38.9962C43.4444 39.459 44.132 40.1863 44.7138 41.1847C45.2956 42.1896 45.5866 43.1483 45.5866 44.0607C45.5866 44.9731 45.2956 45.5946 44.7138 45.9251Z" fill="#75A3C7" fill-opacity="0.5" stroke="white" stroke-width="2" stroke-linecap="round" stroke-linejoin="round"/>
<path d="M42.1287 38.7437L39.3387 40.1388L30.3667 44.628L39.0676 39.6694L40.5816 38.8033C41.0311 38.5454 41.5469 38.5256 42.1287 38.7437Z" fill="#75A3C7" fill-opacity="0.5" stroke="white" stroke-width="2" stroke-linecap="round" stroke-linejoin="round"/>
<path d="M43.9535 46.3508L32.522 52.8764L32.3964 52.9491C31.8146 53.2797 31.1402 53.2202 30.3667 52.7772C29.5931 52.3276 28.9121 51.607 28.3369 50.6086L22.2476 40.0235C21.6658 39.0185 21.3749 38.0665 21.3749 37.1475C21.3749 36.2285 21.6658 35.6136 22.2476 35.283C22.8228 34.9524 23.5039 35.0053 24.2774 35.4549C24.8791 35.7987 25.4212 36.3144 25.8973 36.9954C26.0427 37.1937 26.1749 37.3987 26.3072 37.6235L30.3667 44.6251L39.3386 40.1359L41.5601 43.9971C42.1353 44.9954 42.8163 45.7161 43.5898 46.1656C43.7154 46.2384 43.8344 46.2979 43.9535 46.3508Z" fill="#75A3C7" fill-opacity="0.5" stroke="white" stroke-width="2" stroke-linecap="round" stroke-linejoin="round"/>
<path d="M25.3353 1.61328L25.203 1.67279L25.2626 1.63973C25.2626 1.63973 25.3088 1.61989 25.3353 1.61328Z" fill="#75A3C7" fill-opacity="0.5" stroke="white" stroke-width="2" stroke-linecap="round" stroke-linejoin="round"/>
<path d="M69.8245 32.125V47.8407C69.8245 55.6027 67.894 61.7383 64.0262 66.2407C62.856 67.6027 61.5733 68.7002 60.1584 69.5332C60.1452 69.5398 60.1254 69.5465 60.1122 69.5597C60.0328 69.606 59.9469 69.6522 59.8675 69.6985C59.8543 69.7051 59.8345 69.7184 59.8146 69.725L59.1998 70.0357L58.7765 70.2473L46.3799 76.4556C48.0129 75.5894 49.4807 74.3927 50.8031 72.8522C51.1799 72.4159 51.5369 71.9597 51.8675 71.4903C55.0279 67.1398 56.6014 61.4606 56.6014 54.4523V38.7366C56.6014 37.3482 56.2509 35.9002 55.5501 34.3862C55.16 33.5465 54.7039 32.7598 54.1882 32.0325C53.7783 31.4507 53.3286 30.9085 52.8327 30.406L35.4378 12.8721C34.7634 12.2044 34.0823 11.6755 33.4079 11.2854C32.7336 10.8953 32.0526 10.644 31.3783 10.5317L23.4378 9.3614L13.9832 7.97297C13.2229 7.88041 12.5551 7.97958 11.9799 8.28372L25.1634 1.692L25.2031 1.67216L25.3353 1.61266C25.8774 1.35481 26.4989 1.27547 27.2063 1.36142L44.6014 3.92009C45.2758 4.03249 45.9567 4.28373 46.6311 4.67381C47.3055 5.0639 47.9865 5.59282 48.6609 6.26059L66.0559 23.7945C67.1666 24.9317 68.0724 26.2606 68.7732 27.7746C69.4741 29.2887 69.8245 30.7366 69.8245 32.125Z" fill="#75A3C7" fill-opacity="0.5" stroke="white" stroke-width="2" stroke-linecap="round" stroke-linejoin="round"/>
<path d="M25.4081 1.57422L25.3354 1.61389L25.4081 1.57422Z" fill="#75A3C7" fill-opacity="0.5"/>
<path d="M25.4081 1.57422L25.3354 1.61389" stroke="white" stroke-width="2" stroke-linecap="round" stroke-linejoin="round"/>
<path d="M46.38 76.457L45.7916 76.7545L46.38 76.457Z" fill="#75A3C7" fill-opacity="0.5"/>
<path d="M46.38 76.457L45.7916 76.7545" stroke="white" stroke-width="2" stroke-linecap="round" stroke-linejoin="round"/>
</svg>
