<svg width="272" height="56" viewBox="0 0 272 56" fill="none" xmlns="http://www.w3.org/2000/svg">
<g clip-path="url(#clip0_0_10)">
<g clip-path="url(#clip1_0_10)">
<mask id="mask0_0_10" style="mask-type:luminance" maskUnits="userSpaceOnUse" x="24" y="8" width="40" height="40">
<path d="M63.9386 28.0558C63.9386 17.044 55.0117 8.11719 43.9999 8.11719C32.9881 8.11719 24.0613 17.044 24.0613 28.0558C24.0613 39.0676 32.9881 47.9945 43.9999 47.9945C55.0117 47.9945 63.9386 39.0676 63.9386 28.0558Z" fill="white"/>
</mask>
<g mask="url(#mask0_0_10)">
<path d="M63.9386 28.0558C63.9386 17.044 55.0117 8.11719 43.9999 8.11719C32.9881 8.11719 24.0613 17.044 24.0613 28.0558C24.0613 39.0676 32.9881 47.9945 43.9999 47.9945C55.0117 47.9945 63.9386 39.0676 63.9386 28.0558Z" fill="#305E82"/>
<path d="M55.5643 15.5586H57.1594C57.453 15.5586 57.6911 15.7966 57.6911 16.0903V44.0045C57.6911 44.2981 57.453 44.5361 57.1594 44.5361H55.5643V15.5586Z" fill="white"/>
<path d="M30.5748 24.332H32.7016V44.5366H31.1065C30.8129 44.5366 30.5748 44.2985 30.5748 44.0049V24.332Z" fill="white"/>
<path d="M48.652 15.5586H56.6274C56.9211 15.5586 57.1591 15.7966 57.1591 16.0903V17.6854H48.652V15.5586Z" fill="white"/>
<path d="M25.9496 28.308C25.6334 28.6016 25.6389 29.1035 25.9613 29.3902L26.3602 29.7446C26.6411 29.9945 27.0657 29.9904 27.3419 29.7353L44.0361 14.3154C44.1645 14.1968 44.3629 14.198 44.4899 14.3181L60.7889 29.7258C61.0645 29.9862 61.4934 29.9929 61.7769 29.741L62.1763 29.386C62.4963 29.1015 62.5044 28.604 62.1937 28.3092L44.7651 11.7711C44.4852 11.5055 44.0471 11.5031 43.7644 11.7657L25.9496 28.308Z" fill="white"/>
<path d="M25.9496 28.308L26.0852 28.4541M25.9496 28.308C25.6334 28.6016 25.6389 29.1035 25.9613 29.3902L26.3602 29.7446C26.6411 29.9945 27.0657 29.9904 27.3419 29.7353L44.0361 14.3154C44.1645 14.1968 44.3629 14.198 44.4899 14.3181L60.7889 29.7258C61.0645 29.9862 61.4934 29.9929 61.7769 29.741L62.1763 29.386C62.4963 29.1015 62.5044 28.604 62.1937 28.3092L44.7651 11.7711C44.4852 11.5055 44.0471 11.5031 43.7644 11.7657L25.9496 28.308Z" stroke="white" stroke-width="0.398773"/>
<path d="M41.8958 24.2656C40.7336 24.2656 39.7911 25.1984 39.7911 26.3492C39.7911 27.2781 40.1595 29.4829 43.7849 31.7118C43.8499 31.751 43.9245 31.7719 44.0005 31.7719C44.0764 31.7719 44.1509 31.751 44.2159 31.7118C47.8418 29.4829 48.2097 27.2781 48.2097 26.3492C48.2097 25.1984 47.2672 24.2656 46.1051 24.2656C44.9429 24.2656 44.0005 25.5283 44.0005 25.5283C44.0005 25.5283 43.058 24.2656 41.8958 24.2656Z" stroke="white" stroke-width="1.32924" stroke-linecap="round" stroke-linejoin="round"/>
<path d="M43.035 34.5694V31.9838C43.035 31.4297 43.4842 30.9805 44.0383 30.9805C44.5924 30.9805 45.0416 31.4297 45.0416 31.9838V34.5694H45.7737C46.3609 34.5694 46.837 35.0455 46.837 35.6329C46.837 36.2201 46.3609 36.6963 45.7737 36.6963H45.0416V38.1584H48.7189C49.1961 38.1584 49.5829 38.5453 49.5829 39.0224C49.5829 39.4996 49.1961 39.8865 48.7189 39.8865H45.0416V41.7473H48.5859C49.1366 41.7473 49.5829 42.1937 49.5829 42.7443C49.5829 43.2949 49.1366 43.7412 48.5859 43.7412H45.0416V51.7768C45.0416 52.3309 44.5924 52.7801 44.0383 52.7801C43.4842 52.7801 43.035 52.3309 43.035 51.7768V36.6963H42.9367C42.3494 36.6963 41.8733 36.2201 41.8733 35.6329C41.8733 35.0455 42.3494 34.5694 42.9367 34.5694H43.035Z" fill="white"/>
</g>
<path d="M62.7422 28.0548C62.7422 17.7037 54.351 9.3125 43.9999 9.3125C33.6488 9.3125 25.2576 17.7037 25.2576 28.0548C25.2576 38.4059 33.6488 46.7972 43.9999 46.7972C54.351 46.7972 62.7422 38.4059 62.7422 28.0548Z" stroke="white" stroke-width="2.39264"/>
<path d="M77.6682 25.9915H76.1794L74.6588 23.8116C74.5631 23.8222 74.4674 23.8222 74.3717 23.8222H72.6915V25.9915H71.3091V18.5477H74.3717C76.3283 18.5477 77.5406 19.5473 77.5406 21.1957C77.5406 22.3228 76.9664 23.1522 75.9561 23.5457L77.6682 25.9915ZM76.1475 21.1957C76.1475 20.2598 75.5201 19.7175 74.3079 19.7175H72.6915V22.6844H74.3079C75.5201 22.6844 76.1475 22.1314 76.1475 21.1957ZM80.7887 24.8325H84.9891V25.9915H79.4063V18.5477H84.8402V19.7068H80.7887V21.6423H84.3829V22.7801H80.7887V24.8325ZM92.0918 18.5477H93.4636V25.9915H92.3256L88.221 20.951V25.9915H86.8492V18.5477H87.987L92.0918 23.5883V18.5477ZM97.2871 25.9915V19.7175H94.8201V18.5477H101.137V19.7175H98.6696V25.9915H97.2871ZM107.619 22.1314C108.459 22.3653 109.012 22.9927 109.012 23.9817C109.012 25.2577 108.044 25.9915 106.162 25.9915H102.61V18.5477H105.949C107.661 18.5477 108.618 19.2709 108.618 20.4725C108.618 21.2807 108.204 21.8442 107.619 22.1314ZM105.854 19.4091H103.673V21.7911H105.854C106.938 21.7911 107.555 21.3871 107.555 20.6001C107.555 19.8132 106.938 19.4091 105.854 19.4091ZM106.119 25.1301C107.3 25.1301 107.938 24.758 107.938 23.8966C107.938 23.0353 107.3 22.6525 106.119 22.6525H103.673V25.1301H106.119ZM114.061 26.0766C112.105 26.0766 110.913 24.9387 110.913 22.7801V18.5477H111.977V22.7375C111.977 24.3858 112.732 25.1301 114.072 25.1301C115.412 25.1301 116.177 24.3858 116.177 22.7375V18.5477H117.209V22.7801C117.209 24.9387 116.028 26.0766 114.061 26.0766ZM125.41 18.5477L122.454 23.4181V25.9915H121.401V23.3969L118.445 18.5477H119.583L121.965 22.4717L124.357 18.5477H125.41ZM128.999 26.0979C127.84 26.0979 126.681 25.7363 126.064 25.2046L126.542 24.1306C127.138 24.6091 128.084 24.9494 128.999 24.9494C130.158 24.9494 130.647 24.5347 130.647 23.9817C130.647 22.376 126.223 23.4288 126.223 20.6639C126.223 19.4623 127.18 18.4414 129.222 18.4414C130.115 18.4414 131.051 18.6754 131.7 19.1007L131.264 20.1747C130.594 19.7813 129.86 19.5899 129.211 19.5899C128.063 19.5899 127.595 20.0365 127.595 20.6001C127.595 22.1846 132.008 21.1531 132.008 23.886C132.008 25.077 131.04 26.0979 128.999 26.0979ZM135.104 25.9915V19.7175H132.637V18.5477H138.954V19.7175H136.487V25.9915H135.104ZM145.508 25.9915L144.764 24.2688H141.042L140.308 25.9915H138.884L142.233 18.5477H143.594L146.955 25.9915H145.508ZM141.51 23.1841H144.307L142.903 19.9302L141.51 23.1841ZM153.899 18.5477L150.985 23.365V25.9915H149.602V23.3862L146.679 18.5477H148.157L150.336 22.1739L152.537 18.5477H153.899Z" fill="white"/>
<path d="M68.3194 38.6328C68.044 38.6328 67.8132 38.4168 67.8132 38.1191C67.8132 37.8213 68.044 37.6129 68.3194 37.6129C68.5873 37.6129 68.8107 37.8213 68.8107 38.1191C68.8107 38.4168 68.5873 38.6328 68.3194 38.6328ZM73.6162 34.025H70.6833V35.8413H73.2961V36.4815H70.6833V38.5881H69.9389V33.3774H73.6162V34.025ZM74.8444 33.8836C74.5689 33.8836 74.3605 33.6826 74.3605 33.4221C74.3605 33.1616 74.5689 32.9531 74.8444 32.9531C75.1197 32.9531 75.3282 33.1541 75.3282 33.4072C75.3282 33.6752 75.1272 33.8836 74.8444 33.8836ZM74.4871 38.5881V34.6428H75.2017V38.5881H74.4871ZM78.6726 34.6056C79.6329 34.6056 80.3103 35.1564 80.3103 36.3177V38.5881H79.5957V36.3996C79.5957 35.6254 79.2086 35.2458 78.5313 35.2458C77.772 35.2458 77.2807 35.6999 77.2807 36.5559V38.5881H76.5661V34.6428H77.2509V35.2384C77.5412 34.8364 78.0473 34.6056 78.6726 34.6056ZM84.6618 33.0648H85.3764V38.5881H84.6916V37.9628C84.3715 38.4094 83.8654 38.6328 83.2848 38.6328C82.131 38.6328 81.2898 37.8213 81.2898 36.6155C81.2898 35.4096 82.131 34.6056 83.2848 34.6056C83.843 34.6056 84.3343 34.8141 84.6618 35.2384V33.0648ZM83.3443 38.0075C84.0962 38.0075 84.6693 37.4566 84.6693 36.6155C84.6693 35.7744 84.0962 35.2309 83.3443 35.2309C82.585 35.2309 82.0119 35.7744 82.0119 36.6155C82.0119 37.4566 82.585 38.0075 83.3443 38.0075ZM89.0849 33.8836C88.8094 33.8836 88.6011 33.6826 88.6011 33.4221C88.6011 33.1616 88.8094 32.9531 89.0849 32.9531C89.3603 32.9531 89.5687 33.1541 89.5687 33.4072C89.5687 33.6752 89.3677 33.8836 89.0849 33.8836ZM88.7276 38.5881V34.6428H89.4422V38.5881H88.7276ZM92.8016 37.8437L93.0249 38.3573C92.8089 38.5434 92.4815 38.6328 92.1613 38.6328C91.3649 38.6328 90.9108 38.1935 90.9108 37.397V35.2309H90.2408V34.6428H90.9108V33.7794H91.6254V34.6428H92.7569V35.2309H91.6254V37.3672C91.6254 37.7915 91.8487 38.0298 92.2433 38.0298C92.4516 38.0298 92.6526 37.9628 92.8016 37.8437ZM94.1327 38.6328C93.8573 38.6328 93.6265 38.4168 93.6265 38.1191C93.6265 37.8213 93.8573 37.6129 94.1327 37.6129C94.4007 37.6129 94.624 37.8213 94.624 38.1191C94.624 38.4168 94.4007 38.6328 94.1327 38.6328ZM97.7513 38.5881V33.3774H98.4956V37.9405H101.317V38.5881H97.7513ZM104.429 38.6476C102.828 38.6476 101.652 37.5087 101.652 35.9827C101.652 34.4568 102.828 33.3179 104.429 33.3179C106.014 33.3179 107.19 34.4493 107.19 35.9827C107.19 37.5162 106.014 38.6476 104.429 38.6476ZM104.429 37.9851C105.582 37.9851 106.446 37.1366 106.446 35.9827C106.446 34.829 105.582 33.9804 104.429 33.9804C103.26 33.9804 102.397 34.829 102.397 35.9827C102.397 37.1366 103.26 37.9851 104.429 37.9851ZM111.942 33.3774H112.687L110.401 38.5881H109.665L107.372 33.3774H108.176L110.052 37.6575L111.942 33.3774ZM114.096 37.9405H117.133V38.5881H113.351V33.3774H117.028V34.025H114.096V35.6254H116.708V36.2582H114.096V37.9405ZM120.337 38.5881V33.3774H121.081V38.5881H120.337ZM123.676 38.5881V34.025H121.89V33.3774H126.199V34.025H124.413V38.5881H123.676ZM126.837 38.6328C126.562 38.6328 126.331 38.4168 126.331 38.1191C126.331 37.8213 126.562 37.6129 126.837 37.6129C127.105 37.6129 127.329 37.8213 127.329 38.1191C127.329 38.4168 127.105 38.6328 126.837 38.6328ZM130.456 38.5881V33.3774H131.2V37.9405H134.021V38.5881H130.456ZM134.876 38.5881V33.3774H135.62V38.5881H134.876ZM140.911 33.3774H141.655L139.37 38.5881H138.633L136.34 33.3774H137.144L139.02 37.6575L140.911 33.3774ZM143.064 37.9405H146.101V38.5881H142.319V33.3774H145.997V34.025H143.064V35.6254H145.676V36.2582H143.064V37.9405ZM149.305 38.5881V33.3774H150.049V38.5881H149.305ZM152.644 38.5881V34.025H150.858V33.3774H155.168V34.025H153.382V38.5881H152.644ZM155.805 38.6328C155.53 38.6328 155.299 38.4168 155.299 38.1191C155.299 37.8213 155.53 37.6129 155.805 37.6129C156.074 37.6129 156.297 37.8213 156.297 38.1191C156.297 38.4168 156.074 38.6328 155.805 38.6328Z" fill="white"/>
</g>
</g>
<defs>
<clipPath id="clip0_0_10">
<rect width="272" height="56" fill="white"/>
</clipPath>
<clipPath id="clip1_0_10">
<rect width="132.393" height="40" fill="white" transform="translate(24 8)"/>
</clipPath>
</defs>
</svg>
