<svg width="20" height="20" viewBox="0 0 20 20" fill="none" xmlns="http://www.w3.org/2000/svg">
<path fill-rule="evenodd" clip-rule="evenodd" d="M8.28332 10.5382L6.40999 9.91405C4.44916 9.26072 3.46832 8.93405 3.46832 8.33322C3.46832 7.73322 4.44916 7.40572 6.40999 6.75238L13.5042 4.38738C14.8842 3.92738 15.5742 3.69738 15.9383 4.06155C16.3025 4.42572 16.0725 5.11572 15.6133 6.49488L13.2475 13.5899C12.5942 15.5507 12.2675 16.5315 11.6667 16.5315C11.0667 16.5315 10.7392 15.5507 10.0858 13.5899L9.46082 11.7174L13.0892 8.08905C13.241 7.93188 13.325 7.72138 13.3231 7.50288C13.3212 7.28439 13.2335 7.07537 13.079 6.92087C12.9245 6.76636 12.7155 6.67872 12.497 6.67682C12.2785 6.67492 12.068 6.75892 11.9108 6.91072L8.28332 10.5382Z" fill="#8A38F5"/>
</svg>
