<svg width="16" height="16" viewBox="0 0 16 16" fill="none" xmlns="http://www.w3.org/2000/svg">
<path d="M14.9782 0.902529L4.07309 9.99053M6.64223 12.5711L9.13137 15.0511C9.28424 15.2078 9.47536 15.3218 9.68582 15.382C9.89629 15.4421 10.1188 15.4462 10.3314 15.394C10.5451 15.3441 10.7423 15.2401 10.9042 15.092C11.0661 14.9439 11.1872 14.7566 11.2559 14.5482L15.3428 2.29681C15.4289 2.06723 15.4472 1.81772 15.3954 1.57805C15.3436 1.33838 15.2239 1.11868 15.0506 0.945175C14.8773 0.771668 14.6578 0.651682 14.4182 0.599538C14.1786 0.547393 13.9291 0.565293 13.6994 0.6511L1.44795 4.7391C1.23238 4.81269 1.04036 4.94246 0.891688 5.11504C0.743022 5.28761 0.643099 5.49673 0.602232 5.72081C0.560242 5.9248 0.56959 6.13603 0.629434 6.33551C0.689279 6.53499 0.797746 6.71648 0.945089 6.86367L4.07309 9.99167L3.97023 13.9528L6.64223 12.5711Z" stroke="white" stroke-linecap="round" stroke-linejoin="round"/>
</svg>
