<svg width="20" height="20" viewBox="0 0 20 20" fill="none" xmlns="http://www.w3.org/2000/svg">
<path d="M6.66666 18.6018C6.43333 18.6018 6.19165 18.5435 5.97498 18.4268C5.49998 18.1768 5.20833 17.6768 5.20833 17.1434V15.9602C2.69166 15.7018 1.04166 13.8518 1.04166 11.2018V6.20182C1.04166 3.33516 2.96666 1.41016 5.83333 1.41016H14.1667C17.0333 1.41016 18.9583 3.33516 18.9583 6.20182V11.2018C18.9583 14.0684 17.0333 15.9934 14.1667 15.9934H11.025L7.47497 18.3602C7.23331 18.5185 6.95 18.6018 6.66666 18.6018ZM5.83333 2.65181C3.68333 2.65181 2.29166 4.04348 2.29166 6.19348V11.1935C2.29166 13.3435 3.68333 14.7352 5.83333 14.7352C6.175 14.7352 6.45833 15.0185 6.45833 15.3602V17.1352C6.45833 17.2435 6.525 17.2935 6.56667 17.3185C6.60833 17.3435 6.69168 17.3685 6.78334 17.3102L10.4917 14.8435C10.5917 14.7769 10.7167 14.7352 10.8417 14.7352H14.175C16.325 14.7352 17.7167 13.3435 17.7167 11.1935V6.19348C17.7167 4.04348 16.325 2.65181 14.175 2.65181H5.83333Z" fill="#305E82"/>
<path d="M9.99984 10.0898C9.65818 10.0898 9.37484 9.80651 9.37484 9.46484V9.28988C9.37484 8.32321 10.0832 7.8482 10.3498 7.66487C10.6582 7.45653 10.7582 7.31487 10.7582 7.09821C10.7582 6.68154 10.4165 6.33984 9.99984 6.33984C9.58318 6.33984 9.24153 6.68154 9.24153 7.09821C9.24153 7.43987 8.9582 7.72321 8.61653 7.72321C8.27486 7.72321 7.99153 7.43987 7.99153 7.09821C7.99153 5.98987 8.89151 5.08984 9.99984 5.08984C11.1082 5.08984 12.0082 5.98987 12.0082 7.09821C12.0082 8.04821 11.3082 8.52319 11.0499 8.69819C10.7249 8.91486 10.6248 9.05654 10.6248 9.28988V9.46484C10.6248 9.81484 10.3415 10.0898 9.99984 10.0898Z" fill="#305E82"/>
<path d="M10 12.168C9.65 12.168 9.375 11.8846 9.375 11.543C9.375 11.2013 9.65833 10.918 10 10.918C10.3417 10.918 10.625 11.2013 10.625 11.543C10.625 11.8846 10.35 12.168 10 12.168Z" fill="#305E82"/>
</svg>
