<svg width="20" height="20" viewBox="0 0 20 20" fill="none" xmlns="http://www.w3.org/2000/svg">
<path d="M15 8.95964C14.6583 8.95964 14.375 8.6763 14.375 8.33464V6.66797C14.375 4.04297 13.6333 2.29297 10 2.29297C6.36667 2.29297 5.625 4.04297 5.625 6.66797V8.33464C5.625 8.6763 5.34167 8.95964 5 8.95964C4.65833 8.95964 4.375 8.6763 4.375 8.33464V6.66797C4.375 4.2513 4.95833 1.04297 10 1.04297C15.0417 1.04297 15.625 4.2513 15.625 6.66797V8.33464C15.625 8.6763 15.3417 8.95964 15 8.95964Z" fill="#305E82"/>
<path d="M14.1667 18.957H5.83333C2.15833 18.957 1.04166 17.8404 1.04166 14.1654V12.4987C1.04166 8.8237 2.15833 7.70703 5.83333 7.70703H14.1667C17.8417 7.70703 18.9583 8.8237 18.9583 12.4987V14.1654C18.9583 17.8404 17.8417 18.957 14.1667 18.957ZM5.83333 8.95703C2.85 8.95703 2.29166 9.5237 2.29166 12.4987V14.1654C2.29166 17.1404 2.85 17.707 5.83333 17.707H14.1667C17.15 17.707 17.7083 17.1404 17.7083 14.1654V12.4987C17.7083 9.5237 17.15 8.95703 14.1667 8.95703H5.83333Z" fill="#305E82"/>
<path d="M6.66666 14.1657C6.55833 14.1657 6.44999 14.1408 6.34999 14.0991C6.24166 14.0574 6.15834 13.9991 6.075 13.9241C5.925 13.7657 5.83333 13.5574 5.83333 13.3324C5.83333 13.2241 5.85832 13.1157 5.89998 13.0157C5.94165 12.9074 6 12.8241 6.075 12.7408C6.15834 12.6658 6.24166 12.6074 6.34999 12.5657C6.64999 12.4324 7.02499 12.5074 7.25832 12.7408C7.33332 12.8241 7.39167 12.9157 7.43334 13.0157C7.47501 13.1157 7.49999 13.2241 7.49999 13.3324C7.49999 13.5491 7.40832 13.7657 7.25832 13.9241C7.09999 14.0741 6.88333 14.1657 6.66666 14.1657Z" fill="#305E82"/>
<path d="M10 14.1674C9.78334 14.1674 9.56668 14.0757 9.40835 13.9257C9.25835 13.7674 9.16667 13.5591 9.16667 13.3341C9.16667 13.2257 9.18333 13.1174 9.23333 13.0174C9.27499 12.9174 9.33335 12.8257 9.40835 12.7424C9.60001 12.5507 9.89167 12.4591 10.1583 12.5174C10.2167 12.5257 10.2667 12.5424 10.3167 12.5674C10.3667 12.5841 10.4167 12.6091 10.4667 12.6424C10.5083 12.6674 10.55 12.7091 10.5917 12.7424C10.6667 12.8257 10.725 12.9174 10.7667 13.0174C10.8083 13.1174 10.8333 13.2257 10.8333 13.3341C10.8333 13.5591 10.7417 13.7674 10.5917 13.9257C10.55 13.9591 10.5083 13.9924 10.4667 14.0257C10.4167 14.0591 10.3667 14.0841 10.3167 14.1008C10.2667 14.1258 10.2167 14.1424 10.1583 14.1508C10.1083 14.1591 10.05 14.1674 10 14.1674Z" fill="#305E82"/>
<path d="M13.3333 14.1674C13.1083 14.1674 12.9 14.0757 12.7417 13.9257C12.6667 13.8424 12.6083 13.7507 12.5667 13.6507C12.525 13.5507 12.5 13.4424 12.5 13.3341C12.5 13.1174 12.5917 12.9007 12.7417 12.7424C12.7833 12.7091 12.825 12.6758 12.8667 12.6424C12.9167 12.6091 12.9667 12.5841 13.0167 12.5674C13.0667 12.5424 13.1167 12.5257 13.1667 12.5174C13.4417 12.4591 13.725 12.5507 13.925 12.7424C14.075 12.9007 14.1667 13.1091 14.1667 13.3341C14.1667 13.4424 14.1417 13.5507 14.1 13.6507C14.0583 13.7591 14 13.8424 13.925 13.9257C13.7667 14.0757 13.55 14.1674 13.3333 14.1674Z" fill="#305E82"/>
</svg>
