<svg width="16" height="32" viewBox="0 0 16 32" fill="none" xmlns="http://www.w3.org/2000/svg">
<path d="M7.99999 4.79958C8.46665 4.79958 8.93332 4.97958 9.28665 5.33292L13.6333 9.67958C13.8267 9.87292 13.8267 10.1929 13.6333 10.3862C13.44 10.5796 13.12 10.5796 12.9267 10.3862L8.57999 6.03958C8.25999 5.71958 7.73999 5.71958 7.41999 6.03958L3.07332 10.3862C2.87999 10.5796 2.55999 10.5796 2.36665 10.3862C2.17332 10.1929 2.17332 9.87292 2.36665 9.67958L6.71332 5.33292C7.06665 4.97958 7.53332 4.79958 7.99999 4.79958Z" fill="#121212"/>
<path d="M8.00001 27.2004C7.53335 27.2004 7.06668 27.0204 6.71335 26.6671L2.36668 22.3204C2.17335 22.1271 2.17335 21.8071 2.36668 21.6138C2.56001 21.4204 2.88001 21.4204 3.07335 21.6138L7.42001 25.9604C7.74001 26.2804 8.26001 26.2804 8.58001 25.9604L12.9267 21.6138C13.12 21.4204 13.44 21.4204 13.6333 21.6138C13.8267 21.8071 13.8267 22.1271 13.6333 22.3204L9.28668 26.6671C8.93335 27.0204 8.46668 27.2004 8.00001 27.2004Z" fill="#121212"/>
</svg>
