<svg width="120" height="120" viewBox="0 0 120 120" fill="none" xmlns="http://www.w3.org/2000/svg">
<path d="M83.3254 51.5839C82.7402 50.3244 82.056 49.1442 81.2824 48.0533C80.6675 47.1806 79.9931 46.3674 79.2493 45.6136L53.1568 19.3128C52.1452 18.3112 51.1237 17.5178 50.1122 16.9327C49.1006 16.3475 48.0791 15.9707 47.0675 15.8021L35.1568 14.0467L20.9749 11.9641C19.8344 11.8252 18.8329 11.974 17.9701 12.4302H17.9403C17.5634 12.6484 17.2163 12.9161 16.8989 13.2335C15.8477 14.2847 15.3221 15.8517 15.3221 17.9343V41.5079C15.3221 53.1508 18.218 65.7062 24.0196 79.1541C29.8212 92.612 37.6064 104.027 47.3948 113.418C47.8312 113.835 48.2675 114.212 48.694 114.549C49.1303 114.886 49.6064 115.194 50.1122 115.491C50.6179 115.779 51.094 116.017 51.5303 116.185C51.9568 116.354 52.3931 116.473 52.8295 116.562C59.2758 117.812 64.8593 117.197 69.57 114.688C72.0196 113.389 74.2212 111.594 76.2047 109.283C76.77 108.628 77.3055 107.944 77.8014 107.24C82.5419 100.714 84.9022 92.1955 84.9022 81.6831V58.1095C84.9022 56.0269 84.3766 53.855 83.3254 51.5839ZM67.0707 68.8897L65.9303 69.5343L48.7832 79.3227L48.5949 79.4318C47.7222 79.9277 46.7105 79.8384 45.5502 79.174C44.3898 78.4996 43.3683 77.4186 42.5055 75.9211L33.3717 60.0434C32.4989 58.536 32.0626 57.1079 32.0626 55.7293C32.0626 54.3508 32.4989 53.4285 33.3717 52.9327C34.2345 52.4368 35.256 52.5161 36.4163 53.1905C37.3188 53.7062 38.132 54.4798 38.846 55.5012C39.0642 55.7988 39.2626 56.1062 39.4609 56.4434L45.5502 66.9459L58.6014 59.5079L60.8724 58.2087C61.5468 57.8219 62.3204 57.7922 63.1931 58.1194H63.2031C63.451 58.2087 63.7087 58.3376 63.9765 58.4963C65.1666 59.1905 66.198 60.2814 67.0707 61.7789C67.9435 63.2864 68.3799 64.7244 68.3799 66.093C68.3799 67.4616 67.9435 68.3938 67.0707 68.8897Z" fill="#00B756" stroke="#E0FFF2" stroke-width="2.57143" stroke-linecap="round" stroke-linejoin="round"/>
<path d="M63.193 58.1156L59.008 60.2082L45.55 66.9421L58.6013 59.5041L60.8723 58.2049C61.5466 57.8181 62.3203 57.7884 63.193 58.1156Z" fill="#00B756" stroke="#E0FFF2" stroke-width="2.57143" stroke-linecap="round" stroke-linejoin="round"/>
<path d="M65.9303 69.5301L48.7832 79.3185L48.5947 79.4276C47.722 79.9235 46.7104 79.8342 45.5501 79.1697C44.3898 78.4953 43.3683 77.4144 42.5055 75.9168L33.3715 60.0392C32.4988 58.5317 32.0625 57.1036 32.0625 55.7251C32.0625 54.3466 32.4988 53.4243 33.3715 52.9284C34.2343 52.4325 35.2559 52.5119 36.4162 53.1863C37.3187 53.702 38.1319 54.4755 38.846 55.497C39.0642 55.7945 39.2625 56.102 39.4608 56.4392L45.5501 66.9416L59.008 60.2077L62.3402 65.9995C63.203 67.497 64.2245 68.578 65.3848 69.2524C65.5732 69.3615 65.7518 69.4507 65.9303 69.5301Z" fill="#00B756" stroke="#E0FFF2" stroke-width="2.57143" stroke-linecap="round" stroke-linejoin="round"/>
<path d="M38.0029 2.42188L37.8045 2.51113L37.8938 2.46154C37.8938 2.46154 37.9632 2.43179 38.0029 2.42188Z" fill="#00B756" stroke="#E0FFF2" stroke-width="2.57143" stroke-linecap="round" stroke-linejoin="round"/>
<path d="M104.737 48.1876V71.7611C104.737 83.4041 101.841 92.6074 96.0394 99.361C94.284 101.404 92.36 103.05 90.2377 104.3C90.2179 104.31 90.1881 104.32 90.1683 104.34C90.0493 104.409 89.9204 104.478 89.8013 104.548C89.7815 104.558 89.7518 104.578 89.722 104.587L88.7997 105.054L88.1649 105.371L69.5698 114.683C72.0194 113.384 74.2212 111.589 76.2047 109.278C76.7699 108.624 77.3055 107.94 77.8013 107.235C82.5418 100.71 84.9022 92.1909 84.9022 81.6785V58.1049C84.9022 56.0223 84.3765 53.8504 83.3252 51.5793C82.7401 50.3198 82.0559 49.1396 81.2823 48.0487C80.6675 47.176 79.993 46.3628 79.2492 45.609L53.1567 19.3082C52.1452 18.3066 51.1236 17.5132 50.112 16.9281C49.1004 16.3429 48.079 15.9661 47.0675 15.7975L35.1567 14.0421L20.9748 11.9595C19.8343 11.8206 18.8328 11.9694 17.97 12.4256L37.7451 2.53799L37.8047 2.50824L38.003 2.41898C38.8162 2.03221 39.7484 1.9132 40.8095 2.04213L66.9022 5.88014C67.9137 6.04874 68.9351 6.4256 69.9467 7.01072C70.9583 7.59584 71.9799 8.38923 72.9914 9.39089L99.0839 35.6917C100.75 37.3975 102.109 39.3909 103.16 41.6619C104.211 43.933 104.737 46.1049 104.737 48.1876Z" fill="#00B756" stroke="#E0FFF2" stroke-width="2.57143" stroke-linecap="round" stroke-linejoin="round"/>
<path d="M38.1123 2.36328L38.0032 2.42279L38.1123 2.36328Z" fill="#00B756"/>
<path d="M38.1123 2.36328L38.0032 2.42279" stroke="#E0FFF2" stroke-width="2.57143" stroke-linecap="round" stroke-linejoin="round"/>
<path d="M69.5701 114.688L68.6874 115.134L69.5701 114.688Z" fill="#00B756"/>
<path d="M69.5701 114.688L68.6874 115.134" stroke="#E0FFF2" stroke-width="2.57143" stroke-linecap="round" stroke-linejoin="round"/>
</svg>
