<svg width="488" height="99" viewBox="0 0 488 99" fill="none" xmlns="http://www.w3.org/2000/svg">
<mask id="mask0_473_24848" style="mask-type:alpha" maskUnits="userSpaceOnUse" x="0" y="-25" width="488" height="124">
<rect y="-24.5977" width="488" height="123.305" fill="white"/>
</mask>
<g mask="url(#mask0_473_24848)">
<path d="M-1.11044 68.0455C-8.38408 71.177 -13.8393 72.3948 -15.6577 72.6123V99.361H497.134V1.5C489.658 8.459 471.797 21.5941 460.159 18.4626C445.612 14.5481 429.246 15.2005 418.336 18.4626C407.426 21.7246 400.758 26.2914 388.635 26.9439C376.513 27.5963 380.149 24.3342 361.359 22.377C342.569 20.4198 334.689 39.3396 325.597 44.5589C316.505 49.7781 293.472 48.4733 284.986 44.5589C276.5 40.6444 269.226 39.3396 262.559 39.3396C255.891 39.3396 255.891 43.9064 246.193 44.5589C236.495 45.2113 226.797 38.6872 213.462 39.3396C200.127 39.992 181.943 52.3877 168.002 53.0401C154.06 53.6925 162.546 49.7781 142.544 48.4733C122.541 47.1685 106.782 64.131 94.053 68.0455C81.3241 71.9599 62.5339 63.4786 52.2296 60.869C41.9252 58.2594 32.2271 68.0455 24.3473 68.0455C16.4675 68.0455 7.98161 64.131 -1.11044 68.0455Z" fill="url(#paint0_linear_473_24848)" fill-opacity="0.1" stroke="#305E82" stroke-width="1.30481"/>
<path d="M-49.2265 85.3346H-70.4598V103.276H493.219V38.0352C492.556 40.2098 491.162 44.8854 490.897 46.1902C490.565 47.8213 484.593 52.0619 481.607 50.1047C478.621 48.1475 472.318 47.8213 469 48.7999C465.682 49.7785 466.346 47.8213 460.042 46.1902C453.739 44.5592 451.748 49.7785 448.43 50.7571C445.112 51.7357 440.136 49.7785 437.814 47.8213L437.714 47.7374C435.405 45.7902 432.387 43.2451 424.211 42.602C415.917 41.9496 414.258 52.0619 410.94 55.6501C407.622 59.2384 399.992 57.2812 398.001 56.6288C396.01 55.9763 394.352 53.6929 388.048 55.6501C381.744 57.6074 375.772 64.4576 368.142 64.7838C360.511 65.11 353.875 59.8908 348.567 59.8908C343.259 59.8908 344.918 60.8694 337.619 62.5004C330.32 64.1314 317.712 59.8908 313.399 58.2598C309.086 56.6288 303.446 58.2598 300.46 59.8908C297.474 61.5218 286.858 61.848 283.872 60.8694C280.886 59.8908 272.26 57.6074 270.269 59.8908C268.279 62.1742 259.321 58.2598 256.667 58.2598C254.012 58.2598 255.339 55.9763 248.372 54.6715C241.405 53.3667 236.76 59.8908 234.77 60.8694C232.779 61.848 229.129 60.217 225.812 58.2598C222.494 56.3026 208.891 54.3453 200.929 55.9763C192.966 57.6074 192.303 62.5004 186.995 63.1528C181.686 63.8052 179.364 68.3721 176.71 68.3721C174.055 68.3721 172.397 68.3721 170.074 67.0673C167.752 65.7624 162.112 67.0673 159.789 68.3721C157.467 69.6769 153.486 70.3293 148.841 70.6555C144.196 70.9817 141.542 68.0459 137.892 67.0673C134.243 66.0886 129.266 65.4362 119.977 65.7624C110.687 66.0886 111.019 71.9603 101.398 74.2437C91.7762 76.5271 84.8091 73.5913 78.1736 72.6127C71.5382 71.6341 65.8981 76.201 62.9122 77.832C59.9262 79.463 53.2908 77.832 46.6554 76.201C40.02 74.5699 37.3658 77.832 36.3705 77.832C35.3752 77.832 30.7304 82.0726 25.422 77.832C20.1137 73.5913 17.7913 74.8961 15.8007 74.8961C13.81 74.8961 12.4829 77.1796 9.497 76.201C6.51106 75.2223 6.51106 72.2865 1.5345 72.6127C-3.44207 72.9389 -7.09155 79.7892 -8.75041 80.7678C-10.4093 81.7464 -14.0587 83.0512 -16.7129 83.3774C-19.3671 83.7036 -19.3671 82.0726 -27.3296 81.4202C-35.2921 80.7678 -39.9369 85.3346 -49.2265 85.3346Z" fill="white" fill-opacity="0.04"/>
</g>
<defs>
<linearGradient id="paint0_linear_473_24848" x1="241" y1="31.9023" x2="241" y2="90.9023" gradientUnits="userSpaceOnUse">
<stop stop-color="#789EBB"/>
<stop offset="1" stop-color="white"/>
</linearGradient>
</defs>
</svg>
