<svg width="20" height="20" viewBox="0 0 20 20" fill="none" xmlns="http://www.w3.org/2000/svg">
<path d="M13.0435 17.8408C12.6852 17.8408 12.3268 17.7658 12.0352 17.6242L7.66016 15.4325C7.41016 15.3075 6.91849 15.3158 6.67682 15.4575L4.71016 16.5825C3.86016 17.0658 2.98516 17.1325 2.32682 16.7408C1.66016 16.3575 1.28516 15.5742 1.28516 14.5908V6.49082C1.28516 5.73249 1.78516 4.87415 2.44349 4.49915L6.05182 2.43249C6.66016 2.08249 7.58516 2.05749 8.21016 2.37415L12.5852 4.56582C12.8352 4.69082 13.3185 4.67415 13.5685 4.54082L15.5268 3.42415C16.3768 2.94082 17.2518 2.87415 17.9102 3.26582C18.5768 3.64915 18.9518 4.43249 18.9518 5.41582V13.5242C18.9518 14.2825 18.4518 15.1408 17.7935 15.5158L14.1852 17.5825C13.8685 17.7492 13.4518 17.8408 13.0435 17.8408ZM7.20182 14.0992C7.56016 14.0992 7.91849 14.1742 8.21016 14.3158L12.5852 16.5075C12.8352 16.6325 13.3185 16.6158 13.5685 16.4825L17.1768 14.4158C17.4435 14.2658 17.7018 13.8158 17.7018 13.5158V5.40749C17.7018 4.88249 17.5518 4.49082 17.2768 4.34082C17.0102 4.19082 16.5935 4.24915 16.1435 4.50749L14.1852 5.62415C13.5768 5.97415 12.6518 5.99915 12.0268 5.68249L7.65182 3.49082C7.40182 3.36582 6.91849 3.38249 6.66849 3.51582L3.06016 5.58249C2.79349 5.73249 2.53516 6.18249 2.53516 6.49082V14.5992C2.53516 15.1242 2.68516 15.5158 2.95182 15.6658C3.21849 15.8242 3.63516 15.7575 4.09349 15.4992L6.05182 14.3825C6.37682 14.1908 6.79349 14.0992 7.20182 14.0992Z" fill="#807E7E"/>
<path d="M7.13281 14.7904C6.79115 14.7904 6.50781 14.507 6.50781 14.1654V3.33203C6.50781 2.99036 6.79115 2.70703 7.13281 2.70703C7.47448 2.70703 7.75781 2.99036 7.75781 3.33203V14.1654C7.75781 14.507 7.47448 14.7904 7.13281 14.7904Z" fill="#807E7E"/>
<path d="M13.1094 17.2906C12.7677 17.2906 12.4844 17.0073 12.4844 16.6656V5.51562C12.4844 5.17396 12.7677 4.89062 13.1094 4.89062C13.451 4.89062 13.7344 5.17396 13.7344 5.51562V16.6656C13.7344 17.0073 13.451 17.2906 13.1094 17.2906Z" fill="#807E7E"/>
</svg>
