<svg width="20" height="20" viewBox="0 0 20 20" fill="none" xmlns="http://www.w3.org/2000/svg">
<path d="M16.5846 18.9583H3.41797C1.81797 18.9583 1.04297 18.1417 1.04297 16.475V13.1083C1.04297 11.4333 1.81797 10.625 3.41797 10.625H16.5846C18.1846 10.625 18.9596 11.4417 18.9596 13.1083V16.475C18.9596 18.1417 18.1846 18.9583 16.5846 18.9583ZM3.41797 11.875C2.5763 11.875 2.29297 12.05 2.29297 13.1083V16.475C2.29297 17.5333 2.5763 17.7083 3.41797 17.7083H16.5846C17.4263 17.7083 17.7096 17.5333 17.7096 16.475V13.1083C17.7096 12.05 17.4263 11.875 16.5846 11.875H3.41797Z" fill="#807E7E"/>
<path d="M16.5846 9.3763H3.41797C1.81797 9.3763 1.04297 8.55964 1.04297 6.89297V3.5263C1.04297 1.8513 1.81797 1.04297 3.41797 1.04297H16.5846C18.1846 1.04297 18.9596 1.85964 18.9596 3.5263V6.89297C18.9596 8.55964 18.1846 9.3763 16.5846 9.3763ZM3.41797 2.29297C2.5763 2.29297 2.29297 2.46797 2.29297 3.5263V6.89297C2.29297 7.9513 2.5763 8.1263 3.41797 8.1263H16.5846C17.4263 8.1263 17.7096 7.9513 17.7096 6.89297V3.5263C17.7096 2.46797 17.4263 2.29297 16.5846 2.29297H3.41797Z" fill="#807E7E"/>
</svg>
